<?xml version="1.0" encoding="UTF-8" standalone="no"?>
<!DOCTYPE svg PUBLIC "-//W3C//DTD SVG 1.1//EN"
 "http://www.w3.org/Graphics/SVG/1.1/DTD/svg11.dtd">
<!-- Generated by graphviz version 2.40.1 (20161225.0304)
 -->
<!-- Title: snakemake_dag Pages: 1 -->
<svg width="739pt" height="476pt"
 viewBox="0.00 0.00 738.50 476.00" xmlns="http://www.w3.org/2000/svg" xmlns:xlink="http://www.w3.org/1999/xlink">
<g id="graph0" class="graph" transform="scale(1 1) rotate(0) translate(4 472)">
<title>snakemake_dag</title>
<polygon fill="#ffffff" stroke="transparent" points="-4,4 -4,-472 734.5,-472 734.5,4 -4,4"/>
<!-- 0 -->
<g id="node1" class="node">
<title>0</title>
<path fill="none" stroke="#56d892" stroke-width="2" stroke-dasharray="5,2" d="M479.5,-36C479.5,-36 376.5,-36 376.5,-36 370.5,-36 364.5,-30 364.5,-24 364.5,-24 364.5,-12 364.5,-12 364.5,-6 370.5,0 376.5,0 376.5,0 479.5,0 479.5,0 485.5,0 491.5,-6 491.5,-12 491.5,-12 491.5,-24 491.5,-24 491.5,-30 485.5,-36 479.5,-36"/>
<text text-anchor="middle" x="428" y="-21" font-family="sans" font-size="10.00" fill="#000000">get_extended_bed_file</text>
<text text-anchor="middle" x="428" y="-10" font-family="sans" font-size="10.00" fill="#000000">cell_line: HeLa</text>
</g>
<!-- 1 -->
<g id="node2" class="node">
<title>1</title>
<path fill="none" stroke="#b6d856" stroke-width="2" stroke-dasharray="5,2" d="M412.5,-108C412.5,-108 331.5,-108 331.5,-108 325.5,-108 319.5,-102 319.5,-96 319.5,-96 319.5,-84 319.5,-84 319.5,-78 325.5,-72 331.5,-72 331.5,-72 412.5,-72 412.5,-72 418.5,-72 424.5,-78 424.5,-84 424.5,-84 424.5,-96 424.5,-96 424.5,-102 418.5,-108 412.5,-108"/>
<text text-anchor="middle" x="372" y="-87.5" font-family="sans" font-size="10.00" fill="#000000">extend_3utr_HeLa</text>
</g>
<!-- 1&#45;&gt;0 -->
<g id="edge1" class="edge">
<title>1&#45;&gt;0</title>
<path fill="none" stroke="#c0c0c0" stroke-width="2" d="M386.1312,-71.8314C392.5811,-63.5386 400.3445,-53.557 407.4252,-44.4533"/>
<polygon fill="#c0c0c0" stroke="#c0c0c0" stroke-width="2" points="410.3019,-46.4556 413.6786,-36.4133 404.7764,-42.158 410.3019,-46.4556"/>
</g>
<!-- 2 -->
<g id="node3" class="node">
<title>2</title>
<path fill="none" stroke="#56d8d0" stroke-width="2" stroke-dasharray="5,2" d="M619,-108C619,-108 561,-108 561,-108 555,-108 549,-102 549,-96 549,-96 549,-84 549,-84 549,-78 555,-72 561,-72 561,-72 619,-72 619,-72 625,-72 631,-78 631,-84 631,-84 631,-96 631,-96 631,-102 625,-108 619,-108"/>
<text text-anchor="middle" x="590" y="-87.5" font-family="sans" font-size="10.00" fill="#000000">get_bed6_file</text>
</g>
<!-- 2&#45;&gt;0 -->
<g id="edge2" class="edge">
<title>2&#45;&gt;0</title>
<path fill="none" stroke="#c0c0c0" stroke-width="2" d="M549.1206,-71.8314C527.454,-62.2018 500.6637,-50.295 477.7922,-40.1299"/>
<polygon fill="#c0c0c0" stroke="#c0c0c0" stroke-width="2" points="479.1451,-36.9011 468.5855,-36.038 476.3021,-43.2978 479.1451,-36.9011"/>
</g>
<!-- 3 -->
<g id="node4" class="node">
<title>3</title>
<path fill="none" stroke="#ced856" stroke-width="2" stroke-dasharray="5,2" d="M333.5,-180C333.5,-180 274.5,-180 274.5,-180 268.5,-180 262.5,-174 262.5,-168 262.5,-168 262.5,-156 262.5,-156 262.5,-150 268.5,-144 274.5,-144 274.5,-144 333.5,-144 333.5,-144 339.5,-144 345.5,-150 345.5,-156 345.5,-156 345.5,-168 345.5,-168 345.5,-174 339.5,-180 333.5,-180"/>
<text text-anchor="middle" x="304" y="-159.5" font-family="sans" font-size="10.00" fill="#000000">get_bedgraph</text>
</g>
<!-- 3&#45;&gt;1 -->
<g id="edge3" class="edge">
<title>3&#45;&gt;1</title>
<path fill="none" stroke="#c0c0c0" stroke-width="2" d="M321.1593,-143.8314C329.1511,-135.3694 338.8038,-125.1489 347.5416,-115.8971"/>
<polygon fill="#c0c0c0" stroke="#c0c0c0" stroke-width="2" points="350.288,-118.0866 354.6097,-108.4133 345.1989,-113.2802 350.288,-118.0866"/>
</g>
<!-- 4 -->
<g id="node5" class="node">
<title>4</title>
<path fill="none" stroke="#56d8a9" stroke-width="2" stroke-dasharray="5,2" d="M506.5,-180C506.5,-180 375.5,-180 375.5,-180 369.5,-180 363.5,-174 363.5,-168 363.5,-168 363.5,-156 363.5,-156 363.5,-150 369.5,-144 375.5,-144 375.5,-144 506.5,-144 506.5,-144 512.5,-144 518.5,-150 518.5,-156 518.5,-156 518.5,-168 518.5,-168 518.5,-174 512.5,-180 506.5,-180"/>
<text text-anchor="middle" x="441" y="-159.5" font-family="sans" font-size="10.00" fill="#000000">convert_genepred_to_bed12</text>
</g>
<!-- 4&#45;&gt;1 -->
<g id="edge4" class="edge">
<title>4&#45;&gt;1</title>
<path fill="none" stroke="#c0c0c0" stroke-width="2" d="M423.5884,-143.8314C415.479,-135.3694 405.6844,-125.1489 396.818,-115.8971"/>
<polygon fill="#c0c0c0" stroke="#c0c0c0" stroke-width="2" points="399.0921,-113.2115 389.646,-108.4133 394.0382,-118.0549 399.0921,-113.2115"/>
</g>
<!-- 5 -->
<g id="node6" class="node">
<title>5</title>
<path fill="none" stroke="#ced856" stroke-width="2" stroke-dasharray="5,2" d="M225.5,-180C225.5,-180 166.5,-180 166.5,-180 160.5,-180 154.5,-174 154.5,-168 154.5,-168 154.5,-156 154.5,-156 154.5,-150 160.5,-144 166.5,-144 166.5,-144 225.5,-144 225.5,-144 231.5,-144 237.5,-150 237.5,-156 237.5,-156 237.5,-168 237.5,-168 237.5,-174 231.5,-180 225.5,-180"/>
<text text-anchor="middle" x="196" y="-159.5" font-family="sans" font-size="10.00" fill="#000000">get_bedgraph</text>
</g>
<!-- 5&#45;&gt;1 -->
<g id="edge5" class="edge">
<title>5&#45;&gt;1</title>
<path fill="none" stroke="#c0c0c0" stroke-width="2" d="M237.7095,-144.937C261.882,-135.0483 292.5687,-122.4946 318.5044,-111.8846"/>
<polygon fill="#c0c0c0" stroke="#c0c0c0" stroke-width="2" points="319.8936,-115.0979 327.8238,-108.0721 317.2431,-108.6191 319.8936,-115.0979"/>
</g>
<!-- 6 -->
<g id="node7" class="node">
<title>6</title>
<path fill="none" stroke="#8fd856" stroke-width="2" stroke-dasharray="5,2" d="M718.5,-324C718.5,-324 671.5,-324 671.5,-324 665.5,-324 659.5,-318 659.5,-312 659.5,-312 659.5,-300 659.5,-300 659.5,-294 665.5,-288 671.5,-288 671.5,-288 718.5,-288 718.5,-288 724.5,-288 730.5,-294 730.5,-300 730.5,-300 730.5,-312 730.5,-312 730.5,-318 724.5,-324 718.5,-324"/>
<text text-anchor="middle" x="695" y="-303.5" font-family="sans" font-size="10.00" fill="#000000">get_gtf_file</text>
</g>
<!-- 6&#45;&gt;2 -->
<g id="edge6" class="edge">
<title>6&#45;&gt;2</title>
<path fill="none" stroke="#c0c0c0" stroke-width="2" d="M693.2629,-287.7857C691.0071,-269.1469 686.0947,-239.6461 676,-216 660.0009,-178.5231 632.1685,-140.5811 612.5059,-116.2703"/>
<polygon fill="#c0c0c0" stroke="#c0c0c0" stroke-width="2" points="614.978,-113.766 605.9245,-108.2629 609.5702,-118.2108 614.978,-113.766"/>
</g>
<!-- 9 -->
<g id="node10" class="node">
<title>9</title>
<path fill="none" stroke="#56d87b" stroke-width="2" stroke-dasharray="5,2" d="M655,-252C655,-252 541,-252 541,-252 535,-252 529,-246 529,-240 529,-240 529,-228 529,-228 529,-222 535,-216 541,-216 541,-216 655,-216 655,-216 661,-216 667,-222 667,-228 667,-228 667,-240 667,-240 667,-246 661,-252 655,-252"/>
<text text-anchor="middle" x="598" y="-231.5" font-family="sans" font-size="10.00" fill="#000000">convert_gtf_to_genepred</text>
</g>
<!-- 6&#45;&gt;9 -->
<g id="edge16" class="edge">
<title>6&#45;&gt;9</title>
<path fill="none" stroke="#c0c0c0" stroke-width="2" d="M670.5228,-287.8314C658.4605,-278.8779 643.746,-267.9558 630.7314,-258.2955"/>
<polygon fill="#c0c0c0" stroke="#c0c0c0" stroke-width="2" points="632.5852,-255.3127 622.4694,-252.1628 628.413,-260.9335 632.5852,-255.3127"/>
</g>
<!-- 7 -->
<g id="node8" class="node">
<title>7</title>
<path fill="none" stroke="#d8cb56" stroke-width="2" stroke-dasharray="5,2" d="M337,-252C337,-252 275,-252 275,-252 269,-252 263,-246 263,-240 263,-240 263,-228 263,-228 263,-222 269,-216 275,-216 275,-216 337,-216 337,-216 343,-216 349,-222 349,-228 349,-228 349,-240 349,-240 349,-246 343,-252 337,-252"/>
<text text-anchor="middle" x="306" y="-231.5" font-family="sans" font-size="10.00" fill="#000000">samtools_sort</text>
</g>
<!-- 7&#45;&gt;3 -->
<g id="edge7" class="edge">
<title>7&#45;&gt;3</title>
<path fill="none" stroke="#c0c0c0" stroke-width="2" d="M305.4953,-215.8314C305.2814,-208.131 305.0271,-198.9743 304.7894,-190.4166"/>
<polygon fill="#c0c0c0" stroke="#c0c0c0" stroke-width="2" points="308.2879,-190.3122 304.5115,-180.4133 301.2906,-190.5066 308.2879,-190.3122"/>
</g>
<!-- 8 -->
<g id="node9" class="node">
<title>8</title>
<path fill="none" stroke="#56a9d8" stroke-width="2" stroke-dasharray="5,2" d="M233,-252C233,-252 159,-252 159,-252 153,-252 147,-246 147,-240 147,-240 147,-228 147,-228 147,-222 153,-216 159,-216 159,-216 233,-216 233,-216 239,-216 245,-222 245,-228 245,-228 245,-240 245,-240 245,-246 239,-252 233,-252"/>
<text text-anchor="middle" x="196" y="-231.5" font-family="sans" font-size="10.00" fill="#000000">get_chrom_sizes</text>
</g>
<!-- 8&#45;&gt;3 -->
<g id="edge8" class="edge">
<title>8&#45;&gt;3</title>
<path fill="none" stroke="#c0c0c0" stroke-width="2" d="M223.253,-215.8314C236.9389,-206.7074 253.6915,-195.539 268.3827,-185.7449"/>
<polygon fill="#c0c0c0" stroke="#c0c0c0" stroke-width="2" points="270.3767,-188.6221 276.7558,-180.1628 266.4938,-182.7977 270.3767,-188.6221"/>
</g>
<!-- 8&#45;&gt;5 -->
<g id="edge12" class="edge">
<title>8&#45;&gt;5</title>
<path fill="none" stroke="#c0c0c0" stroke-width="2" d="M196,-215.8314C196,-208.131 196,-198.9743 196,-190.4166"/>
<polygon fill="#c0c0c0" stroke="#c0c0c0" stroke-width="2" points="199.5001,-190.4132 196,-180.4133 192.5001,-190.4133 199.5001,-190.4132"/>
</g>
<!-- 9&#45;&gt;4 -->
<g id="edge9" class="edge">
<title>9&#45;&gt;4</title>
<path fill="none" stroke="#c0c0c0" stroke-width="2" d="M558.3823,-215.8314C537.4778,-206.2446 511.6517,-194.4008 489.5512,-184.2655"/>
<polygon fill="#c0c0c0" stroke="#c0c0c0" stroke-width="2" points="490.8816,-181.0252 480.3328,-180.038 487.9636,-187.388 490.8816,-181.0252"/>
</g>
<!-- 10 -->
<g id="node11" class="node">
<title>10</title>
<path fill="none" stroke="#d89556" stroke-width="2" stroke-dasharray="5,2" d="M499,-252C499,-252 379,-252 379,-252 373,-252 367,-246 367,-240 367,-240 367,-228 367,-228 367,-222 373,-216 379,-216 379,-216 499,-216 499,-216 505,-216 511,-222 511,-228 511,-228 511,-240 511,-240 511,-246 505,-252 499,-252"/>
<text text-anchor="middle" x="439" y="-231.5" font-family="sans" font-size="10.00" fill="#000000">download_genePredToBed</text>
</g>
<!-- 10&#45;&gt;4 -->
<g id="edge10" class="edge">
<title>10&#45;&gt;4</title>
<path fill="none" stroke="#c0c0c0" stroke-width="2" d="M439.5047,-215.8314C439.7186,-208.131 439.9729,-198.9743 440.2106,-190.4166"/>
<polygon fill="#c0c0c0" stroke="#c0c0c0" stroke-width="2" points="443.7094,-190.5066 440.4885,-180.4133 436.7121,-190.3122 443.7094,-190.5066"/>
</g>
<!-- 11 -->
<g id="node12" class="node">
<title>11</title>
<path fill="none" stroke="#d8cb56" stroke-width="2" stroke-dasharray="5,2" d="M107,-252C107,-252 45,-252 45,-252 39,-252 33,-246 33,-240 33,-240 33,-228 33,-228 33,-222 39,-216 45,-216 45,-216 107,-216 107,-216 113,-216 119,-222 119,-228 119,-228 119,-240 119,-240 119,-246 113,-252 107,-252"/>
<text text-anchor="middle" x="76" y="-231.5" font-family="sans" font-size="10.00" fill="#000000">samtools_sort</text>
</g>
<!-- 11&#45;&gt;5 -->
<g id="edge11" class="edge">
<title>11&#45;&gt;5</title>
<path fill="none" stroke="#c0c0c0" stroke-width="2" d="M106.2811,-215.8314C121.6298,-206.6221 140.4498,-195.3301 156.8823,-185.4706"/>
<polygon fill="#c0c0c0" stroke="#c0c0c0" stroke-width="2" points="158.9544,-188.3091 165.7286,-180.1628 155.3529,-182.3066 158.9544,-188.3091"/>
</g>
<!-- 12 -->
<g id="node13" class="node">
<title>12</title>
<path fill="none" stroke="#567bd8" stroke-width="2" stroke-dasharray="5,2" d="M349.5,-324C349.5,-324 302.5,-324 302.5,-324 296.5,-324 290.5,-318 290.5,-312 290.5,-312 290.5,-300 290.5,-300 290.5,-294 296.5,-288 302.5,-288 302.5,-288 349.5,-288 349.5,-288 355.5,-288 361.5,-294 361.5,-300 361.5,-300 361.5,-312 361.5,-312 361.5,-318 355.5,-324 349.5,-324"/>
<text text-anchor="middle" x="326" y="-303.5" font-family="sans" font-size="10.00" fill="#000000">map_reads</text>
</g>
<!-- 12&#45;&gt;7 -->
<g id="edge13" class="edge">
<title>12&#45;&gt;7</title>
<path fill="none" stroke="#c0c0c0" stroke-width="2" d="M320.9532,-287.8314C318.7906,-280.0463 316.2147,-270.7729 313.8152,-262.1347"/>
<polygon fill="#c0c0c0" stroke="#c0c0c0" stroke-width="2" points="317.1636,-261.1117 311.1148,-252.4133 310.419,-262.9852 317.1636,-261.1117"/>
</g>
<!-- 13 -->
<g id="node14" class="node">
<title>13</title>
<path fill="none" stroke="#56b9d8" stroke-width="2" stroke-dasharray="5,2" d="M260,-324C260,-324 132,-324 132,-324 126,-324 120,-318 120,-312 120,-312 120,-300 120,-300 120,-294 126,-288 132,-288 132,-288 260,-288 260,-288 266,-288 272,-294 272,-300 272,-300 272,-312 272,-312 272,-318 266,-324 260,-324"/>
<text text-anchor="middle" x="196" y="-303.5" font-family="sans" font-size="10.00" fill="#000000">download_fetchChromSizes</text>
</g>
<!-- 13&#45;&gt;8 -->
<g id="edge14" class="edge">
<title>13&#45;&gt;8</title>
<path fill="none" stroke="#c0c0c0" stroke-width="2" d="M196,-287.8314C196,-280.131 196,-270.9743 196,-262.4166"/>
<polygon fill="#c0c0c0" stroke="#c0c0c0" stroke-width="2" points="199.5001,-262.4132 196,-252.4133 192.5001,-262.4133 199.5001,-262.4132"/>
</g>
<!-- 14 -->
<g id="node15" class="node">
<title>14</title>
<path fill="none" stroke="#80d856" stroke-width="2" stroke-dasharray="5,2" d="M629,-324C629,-324 513,-324 513,-324 507,-324 501,-318 501,-312 501,-312 501,-300 501,-300 501,-294 507,-288 513,-288 513,-288 629,-288 629,-288 635,-288 641,-294 641,-300 641,-300 641,-312 641,-312 641,-318 635,-324 629,-324"/>
<text text-anchor="middle" x="571" y="-303.5" font-family="sans" font-size="10.00" fill="#000000">download_gtfToGenePred</text>
</g>
<!-- 14&#45;&gt;9 -->
<g id="edge15" class="edge">
<title>14&#45;&gt;9</title>
<path fill="none" stroke="#c0c0c0" stroke-width="2" d="M577.8132,-287.8314C580.7644,-279.9617 584.2858,-270.5712 587.555,-261.8533"/>
<polygon fill="#c0c0c0" stroke="#c0c0c0" stroke-width="2" points="590.8609,-263.0055 591.095,-252.4133 584.3066,-260.5476 590.8609,-263.0055"/>
</g>
<!-- 15 -->
<g id="node16" class="node">
<title>15</title>
<path fill="none" stroke="#567bd8" stroke-width="2" stroke-dasharray="5,2" d="M89.5,-324C89.5,-324 42.5,-324 42.5,-324 36.5,-324 30.5,-318 30.5,-312 30.5,-312 30.5,-300 30.5,-300 30.5,-294 36.5,-288 42.5,-288 42.5,-288 89.5,-288 89.5,-288 95.5,-288 101.5,-294 101.5,-300 101.5,-300 101.5,-312 101.5,-312 101.5,-318 95.5,-324 89.5,-324"/>
<text text-anchor="middle" x="66" y="-303.5" font-family="sans" font-size="10.00" fill="#000000">map_reads</text>
</g>
<!-- 15&#45;&gt;11 -->
<g id="edge17" class="edge">
<title>15&#45;&gt;11</title>
<path fill="none" stroke="#c0c0c0" stroke-width="2" d="M68.5234,-287.8314C69.5929,-280.131 70.8647,-270.9743 72.0532,-262.4166"/>
<polygon fill="#c0c0c0" stroke="#c0c0c0" stroke-width="2" points="75.5336,-262.7997 73.4426,-252.4133 68.6001,-261.8367 75.5336,-262.7997"/>
</g>
<!-- 16 -->
<g id="node17" class="node">
<title>16</title>
<path fill="none" stroke="#59d856" stroke-width="2" stroke-dasharray="5,2" d="M348.5,-396C348.5,-396 303.5,-396 303.5,-396 297.5,-396 291.5,-390 291.5,-384 291.5,-384 291.5,-372 291.5,-372 291.5,-366 297.5,-360 303.5,-360 303.5,-360 348.5,-360 348.5,-360 354.5,-360 360.5,-366 360.5,-372 360.5,-372 360.5,-384 360.5,-384 360.5,-390 354.5,-396 348.5,-396"/>
<text text-anchor="middle" x="326" y="-375.5" font-family="sans" font-size="10.00" fill="#000000">trim_reads</text>
</g>
<!-- 16&#45;&gt;12 -->
<g id="edge18" class="edge">
<title>16&#45;&gt;12</title>
<path fill="none" stroke="#c0c0c0" stroke-width="2" d="M326,-359.8314C326,-352.131 326,-342.9743 326,-334.4166"/>
<polygon fill="#c0c0c0" stroke="#c0c0c0" stroke-width="2" points="329.5001,-334.4132 326,-324.4133 322.5001,-334.4133 329.5001,-334.4132"/>
</g>
<!-- 17 -->
<g id="node18" class="node">
<title>17</title>
<path fill="none" stroke="#59d856" stroke-width="2" stroke-dasharray="5,2" d="M88.5,-396C88.5,-396 43.5,-396 43.5,-396 37.5,-396 31.5,-390 31.5,-384 31.5,-384 31.5,-372 31.5,-372 31.5,-366 37.5,-360 43.5,-360 43.5,-360 88.5,-360 88.5,-360 94.5,-360 100.5,-366 100.5,-372 100.5,-372 100.5,-384 100.5,-384 100.5,-390 94.5,-396 88.5,-396"/>
<text text-anchor="middle" x="66" y="-375.5" font-family="sans" font-size="10.00" fill="#000000">trim_reads</text>
</g>
<!-- 17&#45;&gt;15 -->
<g id="edge19" class="edge">
<title>17&#45;&gt;15</title>
<path fill="none" stroke="#c0c0c0" stroke-width="2" d="M66,-359.8314C66,-352.131 66,-342.9743 66,-334.4166"/>
<polygon fill="#c0c0c0" stroke="#c0c0c0" stroke-width="2" points="69.5001,-334.4132 66,-324.4133 62.5001,-334.4133 69.5001,-334.4132"/>
</g>
<!-- 18 -->
<g id="node19" class="node">
<title>18</title>
<path fill="none" stroke="#5692d8" stroke-width="2" stroke-dasharray="5,2" d="M380,-468C380,-468 272,-468 272,-468 266,-468 260,-462 260,-456 260,-456 260,-444 260,-444 260,-438 266,-432 272,-432 272,-432 380,-432 380,-432 386,-432 392,-438 392,-444 392,-444 392,-456 392,-456 392,-462 386,-468 380,-468"/>
<text text-anchor="middle" x="326" y="-453" font-family="sans" font-size="10.00" fill="#000000">download_sequences</text>
<text text-anchor="middle" x="326" y="-442" font-family="sans" font-size="10.00" fill="#000000">accession: SRR1032877</text>
</g>
<!-- 18&#45;&gt;16 -->
<g id="edge20" class="edge">
<title>18&#45;&gt;16</title>
<path fill="none" stroke="#c0c0c0" stroke-width="2" d="M326,-431.8314C326,-424.131 326,-414.9743 326,-406.4166"/>
<polygon fill="#c0c0c0" stroke="#c0c0c0" stroke-width="2" points="329.5001,-406.4132 326,-396.4133 322.5001,-406.4133 329.5001,-406.4132"/>
</g>
<!-- 19 -->
<g id="node20" class="node">
<title>19</title>
<path fill="none" stroke="#5692d8" stroke-width="2" stroke-dasharray="5,2" d="M120,-468C120,-468 12,-468 12,-468 6,-468 0,-462 0,-456 0,-456 0,-444 0,-444 0,-438 6,-432 12,-432 12,-432 120,-432 120,-432 126,-432 132,-438 132,-444 132,-444 132,-456 132,-456 132,-462 126,-468 120,-468"/>
<text text-anchor="middle" x="66" y="-453" font-family="sans" font-size="10.00" fill="#000000">download_sequences</text>
<text text-anchor="middle" x="66" y="-442" font-family="sans" font-size="10.00" fill="#000000">accession: SRR1032878</text>
</g>
<!-- 19&#45;&gt;17 -->
<g id="edge21" class="edge">
<title>19&#45;&gt;17</title>
<path fill="none" stroke="#c0c0c0" stroke-width="2" d="M66,-431.8314C66,-424.131 66,-414.9743 66,-406.4166"/>
<polygon fill="#c0c0c0" stroke="#c0c0c0" stroke-width="2" points="69.5001,-406.4132 66,-396.4133 62.5001,-406.4133 69.5001,-406.4132"/>
</g>
</g>
</svg>
