<?xml version="1.0" encoding="UTF-8" standalone="no"?>
<!DOCTYPE svg PUBLIC "-//W3C//DTD SVG 1.1//EN"
 "http://www.w3.org/Graphics/SVG/1.1/DTD/svg11.dtd">
<!-- Generated by graphviz version 2.40.1 (20161225.0304)
 -->
<!-- Title: snakemake_dag Pages: 1 -->
<svg width="1697pt" height="476pt"
 viewBox="0.00 0.00 1697.00 476.00" xmlns="http://www.w3.org/2000/svg" xmlns:xlink="http://www.w3.org/1999/xlink">
<g id="graph0" class="graph" transform="scale(1 1) rotate(0) translate(4 472)">
<title>snakemake_dag</title>
<polygon fill="#ffffff" stroke="transparent" points="-4,4 -4,-472 1693,-472 1693,4 -4,4"/>
<!-- 0 -->
<g id="node1" class="node">
<title>0</title>
<path fill="none" stroke="#d89556" stroke-width="2" stroke-dasharray="5,2" d="M817.5,-36C817.5,-36 714.5,-36 714.5,-36 708.5,-36 702.5,-30 702.5,-24 702.5,-24 702.5,-12 702.5,-12 702.5,-6 708.5,0 714.5,0 714.5,0 817.5,0 817.5,0 823.5,0 829.5,-6 829.5,-12 829.5,-12 829.5,-24 829.5,-24 829.5,-30 823.5,-36 817.5,-36"/>
<text text-anchor="middle" x="766" y="-21" font-family="sans" font-size="10.00" fill="#000000">get_extended_bed_file</text>
<text text-anchor="middle" x="766" y="-10" font-family="sans" font-size="10.00" fill="#000000">cell_line: Huh7</text>
</g>
<!-- 1 -->
<g id="node2" class="node">
<title>1</title>
<path fill="none" stroke="#d89556" stroke-width="2" stroke-dasharray="5,2" d="M990.5,-36C990.5,-36 887.5,-36 887.5,-36 881.5,-36 875.5,-30 875.5,-24 875.5,-24 875.5,-12 875.5,-12 875.5,-6 881.5,0 887.5,0 887.5,0 990.5,0 990.5,0 996.5,0 1002.5,-6 1002.5,-12 1002.5,-12 1002.5,-24 1002.5,-24 1002.5,-30 996.5,-36 990.5,-36"/>
<text text-anchor="middle" x="939" y="-21" font-family="sans" font-size="10.00" fill="#000000">get_extended_bed_file</text>
<text text-anchor="middle" x="939" y="-10" font-family="sans" font-size="10.00" fill="#000000">cell_line: IMR90</text>
</g>
<!-- 2 -->
<g id="node3" class="node">
<title>2</title>
<path fill="none" stroke="#d89556" stroke-width="2" stroke-dasharray="5,2" d="M1198.5,-36C1198.5,-36 1095.5,-36 1095.5,-36 1089.5,-36 1083.5,-30 1083.5,-24 1083.5,-24 1083.5,-12 1083.5,-12 1083.5,-6 1089.5,0 1095.5,0 1095.5,0 1198.5,0 1198.5,0 1204.5,0 1210.5,-6 1210.5,-12 1210.5,-12 1210.5,-24 1210.5,-24 1210.5,-30 1204.5,-36 1198.5,-36"/>
<text text-anchor="middle" x="1147" y="-21" font-family="sans" font-size="10.00" fill="#000000">get_extended_bed_file</text>
<text text-anchor="middle" x="1147" y="-10" font-family="sans" font-size="10.00" fill="#000000">cell_line: HeLa</text>
</g>
<!-- 3 -->
<g id="node4" class="node">
<title>3</title>
<path fill="none" stroke="#d89556" stroke-width="2" stroke-dasharray="5,2" d="M1393.5,-36C1393.5,-36 1290.5,-36 1290.5,-36 1284.5,-36 1278.5,-30 1278.5,-24 1278.5,-24 1278.5,-12 1278.5,-12 1278.5,-6 1284.5,0 1290.5,0 1290.5,0 1393.5,0 1393.5,0 1399.5,0 1405.5,-6 1405.5,-12 1405.5,-12 1405.5,-24 1405.5,-24 1405.5,-30 1399.5,-36 1393.5,-36"/>
<text text-anchor="middle" x="1342" y="-21" font-family="sans" font-size="10.00" fill="#000000">get_extended_bed_file</text>
<text text-anchor="middle" x="1342" y="-10" font-family="sans" font-size="10.00" fill="#000000">cell_line: HEK293</text>
</g>
<!-- 4 -->
<g id="node5" class="node">
<title>4</title>
<path fill="none" stroke="#d85656" stroke-width="2" stroke-dasharray="5,2" d="M603.5,-108C603.5,-108 516.5,-108 516.5,-108 510.5,-108 504.5,-102 504.5,-96 504.5,-96 504.5,-84 504.5,-84 504.5,-78 510.5,-72 516.5,-72 516.5,-72 603.5,-72 603.5,-72 609.5,-72 615.5,-78 615.5,-84 615.5,-84 615.5,-96 615.5,-96 615.5,-102 609.5,-108 603.5,-108"/>
<text text-anchor="middle" x="560" y="-87.5" font-family="sans" font-size="10.00" fill="#000000">extend_3utrs_Huh7</text>
</g>
<!-- 4&#45;&gt;0 -->
<g id="edge1" class="edge">
<title>4&#45;&gt;0</title>
<path fill="none" stroke="#c0c0c0" stroke-width="2" d="M611.7166,-71.9243C639.878,-62.0815 674.9062,-49.8386 704.4653,-39.5073"/>
<polygon fill="#c0c0c0" stroke="#c0c0c0" stroke-width="2" points="705.9769,-42.6866 714.2621,-36.0831 703.6673,-36.0786 705.9769,-42.6866"/>
</g>
<!-- 5 -->
<g id="node6" class="node">
<title>5</title>
<path fill="none" stroke="#56d87b" stroke-width="2" stroke-dasharray="5,2" d="M1151,-108C1151,-108 1093,-108 1093,-108 1087,-108 1081,-102 1081,-96 1081,-96 1081,-84 1081,-84 1081,-78 1087,-72 1093,-72 1093,-72 1151,-72 1151,-72 1157,-72 1163,-78 1163,-84 1163,-84 1163,-96 1163,-96 1163,-102 1157,-108 1151,-108"/>
<text text-anchor="middle" x="1122" y="-87.5" font-family="sans" font-size="10.00" fill="#000000">get_bed6_file</text>
</g>
<!-- 5&#45;&gt;0 -->
<g id="edge2" class="edge">
<title>5&#45;&gt;0</title>
<path fill="none" stroke="#c0c0c0" stroke-width="2" d="M1080.8145,-81.6703C1021.9049,-69.7561 912.6515,-47.6598 839.6301,-32.8915"/>
<polygon fill="#c0c0c0" stroke="#c0c0c0" stroke-width="2" points="840.0713,-29.4099 829.5759,-30.858 838.6836,-36.271 840.0713,-29.4099"/>
</g>
<!-- 5&#45;&gt;1 -->
<g id="edge4" class="edge">
<title>5&#45;&gt;1</title>
<path fill="none" stroke="#c0c0c0" stroke-width="2" d="M1080.9312,-73.8418C1055.3853,-63.7909 1022.2123,-50.7393 994.3615,-39.7816"/>
<polygon fill="#c0c0c0" stroke="#c0c0c0" stroke-width="2" points="995.3406,-36.4057 984.7535,-36.0014 992.7777,-42.9197 995.3406,-36.4057"/>
</g>
<!-- 5&#45;&gt;2 -->
<g id="edge6" class="edge">
<title>5&#45;&gt;2</title>
<path fill="none" stroke="#c0c0c0" stroke-width="2" d="M1128.3086,-71.8314C1131.0117,-64.0463 1134.2316,-54.7729 1137.231,-46.1347"/>
<polygon fill="#c0c0c0" stroke="#c0c0c0" stroke-width="2" points="1140.6327,-47.0081 1140.6065,-36.4133 1134.02,-44.7119 1140.6327,-47.0081"/>
</g>
<!-- 5&#45;&gt;3 -->
<g id="edge8" class="edge">
<title>5&#45;&gt;3</title>
<path fill="none" stroke="#c0c0c0" stroke-width="2" d="M1163.1593,-75.354C1166.4845,-74.2071 1169.796,-73.077 1173,-72 1206.1948,-60.8416 1243.2388,-48.9434 1274.1655,-39.1634"/>
<polygon fill="#c0c0c0" stroke="#c0c0c0" stroke-width="2" points="1275.4962,-42.4137 1283.9791,-36.0661 1273.3893,-35.7383 1275.4962,-42.4137"/>
</g>
<!-- 6 -->
<g id="node7" class="node">
<title>6</title>
<path fill="none" stroke="#b6d856" stroke-width="2" stroke-dasharray="5,2" d="M921,-108C921,-108 829,-108 829,-108 823,-108 817,-102 817,-96 817,-96 817,-84 817,-84 817,-78 823,-72 829,-72 829,-72 921,-72 921,-72 927,-72 933,-78 933,-84 933,-84 933,-96 933,-96 933,-102 927,-108 921,-108"/>
<text text-anchor="middle" x="875" y="-87.5" font-family="sans" font-size="10.00" fill="#000000">extend_3utrs_IMR90</text>
</g>
<!-- 6&#45;&gt;1 -->
<g id="edge3" class="edge">
<title>6&#45;&gt;1</title>
<path fill="none" stroke="#c0c0c0" stroke-width="2" d="M891.1499,-71.8314C898.6717,-63.3694 907.7565,-53.1489 915.9804,-43.8971"/>
<polygon fill="#c0c0c0" stroke="#c0c0c0" stroke-width="2" points="918.6049,-46.2127 922.6327,-36.4133 913.373,-41.5621 918.6049,-46.2127"/>
</g>
<!-- 7 -->
<g id="node8" class="node">
<title>7</title>
<path fill="none" stroke="#56d892" stroke-width="2" stroke-dasharray="5,2" d="M1274.5,-108C1274.5,-108 1193.5,-108 1193.5,-108 1187.5,-108 1181.5,-102 1181.5,-96 1181.5,-96 1181.5,-84 1181.5,-84 1181.5,-78 1187.5,-72 1193.5,-72 1193.5,-72 1274.5,-72 1274.5,-72 1280.5,-72 1286.5,-78 1286.5,-84 1286.5,-84 1286.5,-96 1286.5,-96 1286.5,-102 1280.5,-108 1274.5,-108"/>
<text text-anchor="middle" x="1234" y="-87.5" font-family="sans" font-size="10.00" fill="#000000">extend_3utr_HeLa</text>
</g>
<!-- 7&#45;&gt;2 -->
<g id="edge5" class="edge">
<title>7&#45;&gt;2</title>
<path fill="none" stroke="#c0c0c0" stroke-width="2" d="M1212.0462,-71.8314C1201.3305,-62.9632 1188.2811,-52.1637 1176.691,-42.5718"/>
<polygon fill="#c0c0c0" stroke="#c0c0c0" stroke-width="2" points="1178.8822,-39.8422 1168.9467,-36.1628 1174.4192,-45.2349 1178.8822,-39.8422"/>
</g>
<!-- 8 -->
<g id="node9" class="node">
<title>8</title>
<path fill="none" stroke="#56d8d0" stroke-width="2" stroke-dasharray="5,2" d="M1451,-108C1451,-108 1351,-108 1351,-108 1345,-108 1339,-102 1339,-96 1339,-96 1339,-84 1339,-84 1339,-78 1345,-72 1351,-72 1351,-72 1451,-72 1451,-72 1457,-72 1463,-78 1463,-84 1463,-84 1463,-96 1463,-96 1463,-102 1457,-108 1451,-108"/>
<text text-anchor="middle" x="1401" y="-87.5" font-family="sans" font-size="10.00" fill="#000000">extend_3utrs_HEK293</text>
</g>
<!-- 8&#45;&gt;3 -->
<g id="edge7" class="edge">
<title>8&#45;&gt;3</title>
<path fill="none" stroke="#c0c0c0" stroke-width="2" d="M1386.1118,-71.8314C1379.247,-63.454 1370.9699,-53.3531 1363.4489,-44.1749"/>
<polygon fill="#c0c0c0" stroke="#c0c0c0" stroke-width="2" points="1366.1341,-41.9297 1357.0886,-36.4133 1360.7197,-46.3665 1366.1341,-41.9297"/>
</g>
<!-- 9 -->
<g id="node10" class="node">
<title>9</title>
<path fill="none" stroke="#567bd8" stroke-width="2" stroke-dasharray="5,2" d="M538.5,-180C538.5,-180 479.5,-180 479.5,-180 473.5,-180 467.5,-174 467.5,-168 467.5,-168 467.5,-156 467.5,-156 467.5,-150 473.5,-144 479.5,-144 479.5,-144 538.5,-144 538.5,-144 544.5,-144 550.5,-150 550.5,-156 550.5,-156 550.5,-168 550.5,-168 550.5,-174 544.5,-180 538.5,-180"/>
<text text-anchor="middle" x="509" y="-159.5" font-family="sans" font-size="10.00" fill="#000000">get_bedgraph</text>
</g>
<!-- 9&#45;&gt;4 -->
<g id="edge9" class="edge">
<title>9&#45;&gt;4</title>
<path fill="none" stroke="#c0c0c0" stroke-width="2" d="M521.8695,-143.8314C527.6835,-135.6232 534.6696,-125.7606 541.0646,-116.7323"/>
<polygon fill="#c0c0c0" stroke="#c0c0c0" stroke-width="2" points="544.0331,-118.5966 546.9573,-108.4133 538.321,-114.5505 544.0331,-118.5966"/>
</g>
<!-- 10 -->
<g id="node11" class="node">
<title>10</title>
<path fill="none" stroke="#567bd8" stroke-width="2" stroke-dasharray="5,2" d="M639.5,-180C639.5,-180 580.5,-180 580.5,-180 574.5,-180 568.5,-174 568.5,-168 568.5,-168 568.5,-156 568.5,-156 568.5,-150 574.5,-144 580.5,-144 580.5,-144 639.5,-144 639.5,-144 645.5,-144 651.5,-150 651.5,-156 651.5,-156 651.5,-168 651.5,-168 651.5,-174 645.5,-180 639.5,-180"/>
<text text-anchor="middle" x="610" y="-159.5" font-family="sans" font-size="10.00" fill="#000000">get_bedgraph</text>
</g>
<!-- 10&#45;&gt;4 -->
<g id="edge10" class="edge">
<title>10&#45;&gt;4</title>
<path fill="none" stroke="#c0c0c0" stroke-width="2" d="M597.3829,-143.8314C591.6828,-135.6232 584.8337,-125.7606 578.5641,-116.7323"/>
<polygon fill="#c0c0c0" stroke="#c0c0c0" stroke-width="2" points="581.3658,-114.6306 572.787,-108.4133 575.6162,-118.6234 581.3658,-114.6306"/>
</g>
<!-- 11 -->
<g id="node12" class="node">
<title>11</title>
<path fill="none" stroke="#56d8a9" stroke-width="2" stroke-dasharray="5,2" d="M1050.5,-180C1050.5,-180 919.5,-180 919.5,-180 913.5,-180 907.5,-174 907.5,-168 907.5,-168 907.5,-156 907.5,-156 907.5,-150 913.5,-144 919.5,-144 919.5,-144 1050.5,-144 1050.5,-144 1056.5,-144 1062.5,-150 1062.5,-156 1062.5,-156 1062.5,-168 1062.5,-168 1062.5,-174 1056.5,-180 1050.5,-180"/>
<text text-anchor="middle" x="985" y="-159.5" font-family="sans" font-size="10.00" fill="#000000">convert_genepred_to_bed12</text>
</g>
<!-- 11&#45;&gt;4 -->
<g id="edge11" class="edge">
<title>11&#45;&gt;4</title>
<path fill="none" stroke="#c0c0c0" stroke-width="2" d="M907.0484,-148.7941C826.3209,-135.1179 701.5834,-113.9859 625.6973,-101.1299"/>
<polygon fill="#c0c0c0" stroke="#c0c0c0" stroke-width="2" points="626.2238,-97.6693 615.7797,-99.4497 625.0546,-104.571 626.2238,-97.6693"/>
</g>
<!-- 11&#45;&gt;6 -->
<g id="edge17" class="edge">
<title>11&#45;&gt;6</title>
<path fill="none" stroke="#c0c0c0" stroke-width="2" d="M957.2424,-143.8314C943.303,-134.7074 926.2402,-123.539 911.2769,-113.7449"/>
<polygon fill="#c0c0c0" stroke="#c0c0c0" stroke-width="2" points="913.0326,-110.711 902.7488,-108.1628 909.199,-116.5679 913.0326,-110.711"/>
</g>
<!-- 11&#45;&gt;7 -->
<g id="edge19" class="edge">
<title>11&#45;&gt;7</title>
<path fill="none" stroke="#c0c0c0" stroke-width="2" d="M1047.7664,-143.8992C1081.7284,-134.0995 1124.6577,-121.7031 1171.5007,-108.1428"/>
<polygon fill="#c0c0c0" stroke="#c0c0c0" stroke-width="2" points="1172.6042,-111.4671 1181.2363,-105.3241 1170.6574,-104.7433 1172.6042,-111.4671"/>
</g>
<!-- 11&#45;&gt;8 -->
<g id="edge23" class="edge">
<title>11&#45;&gt;8</title>
<path fill="none" stroke="#c0c0c0" stroke-width="2" d="M1062.7584,-148.5418C1139.0111,-135.3442 1254.34,-115.3835 1328.6688,-102.5189"/>
<polygon fill="#c0c0c0" stroke="#c0c0c0" stroke-width="2" points="1329.6199,-105.9064 1338.8765,-100.7522 1328.426,-99.0089 1329.6199,-105.9064"/>
</g>
<!-- 12 -->
<g id="node13" class="node">
<title>12</title>
<path fill="none" stroke="#567bd8" stroke-width="2" stroke-dasharray="5,2" d="M336.5,-180C336.5,-180 277.5,-180 277.5,-180 271.5,-180 265.5,-174 265.5,-168 265.5,-168 265.5,-156 265.5,-156 265.5,-150 271.5,-144 277.5,-144 277.5,-144 336.5,-144 336.5,-144 342.5,-144 348.5,-150 348.5,-156 348.5,-156 348.5,-168 348.5,-168 348.5,-174 342.5,-180 336.5,-180"/>
<text text-anchor="middle" x="307" y="-159.5" font-family="sans" font-size="10.00" fill="#000000">get_bedgraph</text>
</g>
<!-- 12&#45;&gt;4 -->
<g id="edge12" class="edge">
<title>12&#45;&gt;4</title>
<path fill="none" stroke="#c0c0c0" stroke-width="2" d="M348.6516,-146.7041C351.4681,-145.763 354.2701,-144.8528 357,-144 402.5683,-129.7656 454.6143,-115.9687 494.5981,-105.8841"/>
<polygon fill="#c0c0c0" stroke="#c0c0c0" stroke-width="2" points="495.6444,-109.2301 504.4923,-103.4021 493.9412,-102.4405 495.6444,-109.2301"/>
</g>
<!-- 13 -->
<g id="node14" class="node">
<title>13</title>
<path fill="none" stroke="#567bd8" stroke-width="2" stroke-dasharray="5,2" d="M437.5,-180C437.5,-180 378.5,-180 378.5,-180 372.5,-180 366.5,-174 366.5,-168 366.5,-168 366.5,-156 366.5,-156 366.5,-150 372.5,-144 378.5,-144 378.5,-144 437.5,-144 437.5,-144 443.5,-144 449.5,-150 449.5,-156 449.5,-156 449.5,-168 449.5,-168 449.5,-174 443.5,-180 437.5,-180"/>
<text text-anchor="middle" x="408" y="-159.5" font-family="sans" font-size="10.00" fill="#000000">get_bedgraph</text>
</g>
<!-- 13&#45;&gt;4 -->
<g id="edge13" class="edge">
<title>13&#45;&gt;4</title>
<path fill="none" stroke="#c0c0c0" stroke-width="2" d="M446.356,-143.8314C466.5044,-134.2874 491.3752,-122.5065 512.7083,-112.4013"/>
<polygon fill="#c0c0c0" stroke="#c0c0c0" stroke-width="2" points="514.3807,-115.482 521.9198,-108.038 511.3841,-109.1558 514.3807,-115.482"/>
</g>
<!-- 14 -->
<g id="node15" class="node">
<title>14</title>
<path fill="none" stroke="#d8cb56" stroke-width="2" stroke-dasharray="5,2" d="M1122.5,-324C1122.5,-324 1075.5,-324 1075.5,-324 1069.5,-324 1063.5,-318 1063.5,-312 1063.5,-312 1063.5,-300 1063.5,-300 1063.5,-294 1069.5,-288 1075.5,-288 1075.5,-288 1122.5,-288 1122.5,-288 1128.5,-288 1134.5,-294 1134.5,-300 1134.5,-300 1134.5,-312 1134.5,-312 1134.5,-318 1128.5,-324 1122.5,-324"/>
<text text-anchor="middle" x="1099" y="-303.5" font-family="sans" font-size="10.00" fill="#000000">get_gtf_file</text>
</g>
<!-- 14&#45;&gt;5 -->
<g id="edge14" class="edge">
<title>14&#45;&gt;5</title>
<path fill="none" stroke="#c0c0c0" stroke-width="2" d="M1131.2779,-287.8412C1143.9425,-278.8521 1157.0816,-266.742 1164,-252 1185.099,-207.0414 1159.2984,-149.8979 1139.8211,-116.8843"/>
<polygon fill="#c0c0c0" stroke="#c0c0c0" stroke-width="2" points="1142.7409,-114.95 1134.5394,-108.2428 1136.7682,-118.6006 1142.7409,-114.95"/>
</g>
<!-- 24 -->
<g id="node25" class="node">
<title>24</title>
<path fill="none" stroke="#d87d56" stroke-width="2" stroke-dasharray="5,2" d="M981,-252C981,-252 867,-252 867,-252 861,-252 855,-246 855,-240 855,-240 855,-228 855,-228 855,-222 861,-216 867,-216 867,-216 981,-216 981,-216 987,-216 993,-222 993,-228 993,-228 993,-240 993,-240 993,-246 987,-252 981,-252"/>
<text text-anchor="middle" x="924" y="-231.5" font-family="sans" font-size="10.00" fill="#000000">convert_gtf_to_genepred</text>
</g>
<!-- 14&#45;&gt;24 -->
<g id="edge50" class="edge">
<title>14&#45;&gt;24</title>
<path fill="none" stroke="#c0c0c0" stroke-width="2" d="M1063.1638,-291.256C1038.4755,-281.0985 1005.2379,-267.4236 977.4368,-255.9854"/>
<polygon fill="#c0c0c0" stroke="#c0c0c0" stroke-width="2" points="978.4325,-252.6105 967.8529,-252.0423 975.7691,-259.084 978.4325,-252.6105"/>
</g>
<!-- 15 -->
<g id="node16" class="node">
<title>15</title>
<path fill="none" stroke="#567bd8" stroke-width="2" stroke-dasharray="5,2" d="M740.5,-180C740.5,-180 681.5,-180 681.5,-180 675.5,-180 669.5,-174 669.5,-168 669.5,-168 669.5,-156 669.5,-156 669.5,-150 675.5,-144 681.5,-144 681.5,-144 740.5,-144 740.5,-144 746.5,-144 752.5,-150 752.5,-156 752.5,-156 752.5,-168 752.5,-168 752.5,-174 746.5,-180 740.5,-180"/>
<text text-anchor="middle" x="711" y="-159.5" font-family="sans" font-size="10.00" fill="#000000">get_bedgraph</text>
</g>
<!-- 15&#45;&gt;6 -->
<g id="edge15" class="edge">
<title>15&#45;&gt;6</title>
<path fill="none" stroke="#c0c0c0" stroke-width="2" d="M752.3841,-143.8314C774.3182,-134.2018 801.4392,-122.295 824.5931,-112.1299"/>
<polygon fill="#c0c0c0" stroke="#c0c0c0" stroke-width="2" points="826.164,-115.2627 833.9135,-108.038 823.35,-108.8532 826.164,-115.2627"/>
</g>
<!-- 16 -->
<g id="node17" class="node">
<title>16</title>
<path fill="none" stroke="#567bd8" stroke-width="2" stroke-dasharray="5,2" d="M841.5,-180C841.5,-180 782.5,-180 782.5,-180 776.5,-180 770.5,-174 770.5,-168 770.5,-168 770.5,-156 770.5,-156 770.5,-150 776.5,-144 782.5,-144 782.5,-144 841.5,-144 841.5,-144 847.5,-144 853.5,-150 853.5,-156 853.5,-156 853.5,-168 853.5,-168 853.5,-174 847.5,-180 841.5,-180"/>
<text text-anchor="middle" x="812" y="-159.5" font-family="sans" font-size="10.00" fill="#000000">get_bedgraph</text>
</g>
<!-- 16&#45;&gt;6 -->
<g id="edge16" class="edge">
<title>16&#45;&gt;6</title>
<path fill="none" stroke="#c0c0c0" stroke-width="2" d="M827.8976,-143.8314C835.2278,-135.454 844.066,-125.3531 852.0969,-116.1749"/>
<polygon fill="#c0c0c0" stroke="#c0c0c0" stroke-width="2" points="854.9373,-118.2438 858.8884,-108.4133 849.6693,-113.6343 854.9373,-118.2438"/>
</g>
<!-- 17 -->
<g id="node18" class="node">
<title>17</title>
<path fill="none" stroke="#567bd8" stroke-width="2" stroke-dasharray="5,2" d="M1263.5,-180C1263.5,-180 1204.5,-180 1204.5,-180 1198.5,-180 1192.5,-174 1192.5,-168 1192.5,-168 1192.5,-156 1192.5,-156 1192.5,-150 1198.5,-144 1204.5,-144 1204.5,-144 1263.5,-144 1263.5,-144 1269.5,-144 1275.5,-150 1275.5,-156 1275.5,-156 1275.5,-168 1275.5,-168 1275.5,-174 1269.5,-180 1263.5,-180"/>
<text text-anchor="middle" x="1234" y="-159.5" font-family="sans" font-size="10.00" fill="#000000">get_bedgraph</text>
</g>
<!-- 17&#45;&gt;7 -->
<g id="edge18" class="edge">
<title>17&#45;&gt;7</title>
<path fill="none" stroke="#c0c0c0" stroke-width="2" d="M1234,-143.8314C1234,-136.131 1234,-126.9743 1234,-118.4166"/>
<polygon fill="#c0c0c0" stroke="#c0c0c0" stroke-width="2" points="1237.5001,-118.4132 1234,-108.4133 1230.5001,-118.4133 1237.5001,-118.4132"/>
</g>
<!-- 18 -->
<g id="node19" class="node">
<title>18</title>
<path fill="none" stroke="#567bd8" stroke-width="2" stroke-dasharray="5,2" d="M1364.5,-180C1364.5,-180 1305.5,-180 1305.5,-180 1299.5,-180 1293.5,-174 1293.5,-168 1293.5,-168 1293.5,-156 1293.5,-156 1293.5,-150 1299.5,-144 1305.5,-144 1305.5,-144 1364.5,-144 1364.5,-144 1370.5,-144 1376.5,-150 1376.5,-156 1376.5,-156 1376.5,-168 1376.5,-168 1376.5,-174 1370.5,-180 1364.5,-180"/>
<text text-anchor="middle" x="1335" y="-159.5" font-family="sans" font-size="10.00" fill="#000000">get_bedgraph</text>
</g>
<!-- 18&#45;&gt;7 -->
<g id="edge20" class="edge">
<title>18&#45;&gt;7</title>
<path fill="none" stroke="#c0c0c0" stroke-width="2" d="M1309.5134,-143.8314C1296.8341,-134.7927 1281.3404,-123.7476 1267.6945,-114.0198"/>
<polygon fill="#c0c0c0" stroke="#c0c0c0" stroke-width="2" points="1269.6529,-111.1176 1259.4784,-108.1628 1265.5895,-116.8176 1269.6529,-111.1176"/>
</g>
<!-- 19 -->
<g id="node20" class="node">
<title>19</title>
<path fill="none" stroke="#567bd8" stroke-width="2" stroke-dasharray="5,2" d="M1465.5,-180C1465.5,-180 1406.5,-180 1406.5,-180 1400.5,-180 1394.5,-174 1394.5,-168 1394.5,-168 1394.5,-156 1394.5,-156 1394.5,-150 1400.5,-144 1406.5,-144 1406.5,-144 1465.5,-144 1465.5,-144 1471.5,-144 1477.5,-150 1477.5,-156 1477.5,-156 1477.5,-168 1477.5,-168 1477.5,-174 1471.5,-180 1465.5,-180"/>
<text text-anchor="middle" x="1436" y="-159.5" font-family="sans" font-size="10.00" fill="#000000">get_bedgraph</text>
</g>
<!-- 19&#45;&gt;8 -->
<g id="edge21" class="edge">
<title>19&#45;&gt;8</title>
<path fill="none" stroke="#c0c0c0" stroke-width="2" d="M1427.168,-143.8314C1423.3014,-135.8771 1418.6794,-126.369 1414.4032,-117.5723"/>
<polygon fill="#c0c0c0" stroke="#c0c0c0" stroke-width="2" points="1417.4707,-115.8768 1409.9509,-108.4133 1411.1751,-118.9371 1417.4707,-115.8768"/>
</g>
<!-- 20 -->
<g id="node21" class="node">
<title>20</title>
<path fill="none" stroke="#567bd8" stroke-width="2" stroke-dasharray="5,2" d="M1566.5,-180C1566.5,-180 1507.5,-180 1507.5,-180 1501.5,-180 1495.5,-174 1495.5,-168 1495.5,-168 1495.5,-156 1495.5,-156 1495.5,-150 1501.5,-144 1507.5,-144 1507.5,-144 1566.5,-144 1566.5,-144 1572.5,-144 1578.5,-150 1578.5,-156 1578.5,-156 1578.5,-168 1578.5,-168 1578.5,-174 1572.5,-180 1566.5,-180"/>
<text text-anchor="middle" x="1537" y="-159.5" font-family="sans" font-size="10.00" fill="#000000">get_bedgraph</text>
</g>
<!-- 20&#45;&gt;8 -->
<g id="edge22" class="edge">
<title>20&#45;&gt;8</title>
<path fill="none" stroke="#c0c0c0" stroke-width="2" d="M1502.6815,-143.8314C1484.9641,-134.4516 1463.1655,-122.9112 1444.3016,-112.9244"/>
<polygon fill="#c0c0c0" stroke="#c0c0c0" stroke-width="2" points="1445.7831,-109.7485 1435.3076,-108.1628 1442.5078,-115.935 1445.7831,-109.7485"/>
</g>
<!-- 21 -->
<g id="node22" class="node">
<title>21</title>
<path fill="none" stroke="#56d8b9" stroke-width="2" stroke-dasharray="5,2" d="M397,-252C397,-252 335,-252 335,-252 329,-252 323,-246 323,-240 323,-240 323,-228 323,-228 323,-222 329,-216 335,-216 335,-216 397,-216 397,-216 403,-216 409,-222 409,-228 409,-228 409,-240 409,-240 409,-246 403,-252 397,-252"/>
<text text-anchor="middle" x="366" y="-231.5" font-family="sans" font-size="10.00" fill="#000000">samtools_sort</text>
</g>
<!-- 21&#45;&gt;9 -->
<g id="edge24" class="edge">
<title>21&#45;&gt;9</title>
<path fill="none" stroke="#c0c0c0" stroke-width="2" d="M402.0849,-215.8314C420.7989,-206.4089 443.8432,-194.8062 463.74,-184.7883"/>
<polygon fill="#c0c0c0" stroke="#c0c0c0" stroke-width="2" points="465.5689,-187.7861 472.9266,-180.1628 462.4208,-181.5339 465.5689,-187.7861"/>
</g>
<!-- 22 -->
<g id="node23" class="node">
<title>22</title>
<path fill="none" stroke="#56d0d8" stroke-width="2" stroke-dasharray="5,2" d="M721,-252C721,-252 647,-252 647,-252 641,-252 635,-246 635,-240 635,-240 635,-228 635,-228 635,-222 641,-216 647,-216 647,-216 721,-216 721,-216 727,-216 733,-222 733,-228 733,-228 733,-240 733,-240 733,-246 727,-252 721,-252"/>
<text text-anchor="middle" x="684" y="-231.5" font-family="sans" font-size="10.00" fill="#000000">get_chrom_sizes</text>
</g>
<!-- 22&#45;&gt;9 -->
<g id="edge25" class="edge">
<title>22&#45;&gt;9</title>
<path fill="none" stroke="#c0c0c0" stroke-width="2" d="M639.8401,-215.8314C615.5984,-205.8576 585.4189,-193.4409 560.1554,-183.0468"/>
<polygon fill="#c0c0c0" stroke="#c0c0c0" stroke-width="2" points="561.3158,-179.7396 550.7362,-179.1715 558.6524,-186.2131 561.3158,-179.7396"/>
</g>
<!-- 22&#45;&gt;10 -->
<g id="edge26" class="edge">
<title>22&#45;&gt;10</title>
<path fill="none" stroke="#c0c0c0" stroke-width="2" d="M665.3267,-215.8314C656.4751,-207.219 645.7514,-196.7851 636.1105,-187.4048"/>
<polygon fill="#c0c0c0" stroke="#c0c0c0" stroke-width="2" points="638.2754,-184.6279 628.6674,-180.1628 633.3939,-189.645 638.2754,-184.6279"/>
</g>
<!-- 22&#45;&gt;12 -->
<g id="edge31" class="edge">
<title>22&#45;&gt;12</title>
<path fill="none" stroke="#c0c0c0" stroke-width="2" d="M634.79,-218.1112C631.829,-217.3474 628.8829,-216.6355 626,-216 511.3127,-190.7172 476.0367,-207.642 358.2898,-180.0431"/>
<polygon fill="#c0c0c0" stroke="#c0c0c0" stroke-width="2" points="359.0798,-176.6333 348.5389,-177.7011 357.445,-183.4398 359.0798,-176.6333"/>
</g>
<!-- 22&#45;&gt;13 -->
<g id="edge32" class="edge">
<title>22&#45;&gt;13</title>
<path fill="none" stroke="#c0c0c0" stroke-width="2" d="M634.7257,-218.3777C631.7809,-217.5469 628.8559,-216.7475 626,-216 555.157,-197.4568 533.2109,-200.6657 459.372,-180.2093"/>
<polygon fill="#c0c0c0" stroke="#c0c0c0" stroke-width="2" points="460.18,-176.8006 449.6051,-177.4511 458.2775,-183.5372 460.18,-176.8006"/>
</g>
<!-- 22&#45;&gt;15 -->
<g id="edge34" class="edge">
<title>22&#45;&gt;15</title>
<path fill="none" stroke="#c0c0c0" stroke-width="2" d="M690.8132,-215.8314C693.7644,-207.9617 697.2858,-198.5712 700.555,-189.8533"/>
<polygon fill="#c0c0c0" stroke="#c0c0c0" stroke-width="2" points="703.8609,-191.0055 704.095,-180.4133 697.3066,-188.5476 703.8609,-191.0055"/>
</g>
<!-- 22&#45;&gt;16 -->
<g id="edge37" class="edge">
<title>22&#45;&gt;16</title>
<path fill="none" stroke="#c0c0c0" stroke-width="2" d="M716.2998,-215.8314C732.8234,-206.5368 753.1186,-195.1208 770.7607,-185.1971"/>
<polygon fill="#c0c0c0" stroke="#c0c0c0" stroke-width="2" points="772.7107,-188.116 779.7105,-180.1628 769.2788,-182.015 772.7107,-188.116"/>
</g>
<!-- 22&#45;&gt;17 -->
<g id="edge39" class="edge">
<title>22&#45;&gt;17</title>
<path fill="none" stroke="#c0c0c0" stroke-width="2" d="M733.1921,-218.0275C736.1576,-217.2847 739.1096,-216.6003 742,-216 886.4538,-185.9966 925.3494,-196.1464 1072,-180 1108.9297,-175.934 1150.5895,-171.3042 1182.4145,-167.7583"/>
<polygon fill="#c0c0c0" stroke="#c0c0c0" stroke-width="2" points="1182.8325,-171.2335 1192.3833,-166.6472 1182.0571,-164.2765 1182.8325,-171.2335"/>
</g>
<!-- 22&#45;&gt;18 -->
<g id="edge41" class="edge">
<title>22&#45;&gt;18</title>
<path fill="none" stroke="#c0c0c0" stroke-width="2" d="M733.1633,-217.8812C736.1361,-217.1752 739.0975,-216.5389 742,-216 976.5487,-172.4559 1046.3414,-227.8877 1283.2833,-180.0431"/>
<polygon fill="#c0c0c0" stroke="#c0c0c0" stroke-width="2" points="1284.1454,-183.4391 1293.2336,-177.9935 1282.7331,-176.583 1284.1454,-183.4391"/>
</g>
<!-- 22&#45;&gt;19 -->
<g id="edge42" class="edge">
<title>22&#45;&gt;19</title>
<path fill="none" stroke="#c0c0c0" stroke-width="2" d="M733.1568,-217.8454C736.1312,-217.1484 739.0947,-216.5238 742,-216 1020.8142,-165.7304 1103.1599,-235.4778 1384.1599,-180.0512"/>
<polygon fill="#c0c0c0" stroke="#c0c0c0" stroke-width="2" points="1385.1255,-183.4272 1394.2404,-178.0263 1383.7469,-176.5643 1385.1255,-183.4272"/>
</g>
<!-- 22&#45;&gt;20 -->
<g id="edge45" class="edge">
<title>22&#45;&gt;20</title>
<path fill="none" stroke="#c0c0c0" stroke-width="2" d="M733.1521,-217.8192C736.1277,-217.1288 739.0928,-216.5128 742,-216 1065.1098,-159.0039 1159.9681,-243.0998 1485.0664,-180.0573"/>
<polygon fill="#c0c0c0" stroke="#c0c0c0" stroke-width="2" points="1486.1112,-183.4188 1495.2452,-178.0503 1484.757,-176.551 1486.1112,-183.4188"/>
</g>
<!-- 23 -->
<g id="node24" class="node">
<title>23</title>
<path fill="none" stroke="#56d8b9" stroke-width="2" stroke-dasharray="5,2" d="M501,-252C501,-252 439,-252 439,-252 433,-252 427,-246 427,-240 427,-240 427,-228 427,-228 427,-222 433,-216 439,-216 439,-216 501,-216 501,-216 507,-216 513,-222 513,-228 513,-228 513,-240 513,-240 513,-246 507,-252 501,-252"/>
<text text-anchor="middle" x="470" y="-231.5" font-family="sans" font-size="10.00" fill="#000000">samtools_sort</text>
</g>
<!-- 23&#45;&gt;10 -->
<g id="edge27" class="edge">
<title>23&#45;&gt;10</title>
<path fill="none" stroke="#c0c0c0" stroke-width="2" d="M505.3279,-215.8314C523.6493,-206.4089 546.2102,-194.8062 565.6895,-184.7883"/>
<polygon fill="#c0c0c0" stroke="#c0c0c0" stroke-width="2" points="567.3912,-187.8489 574.6834,-180.1628 564.1898,-181.6239 567.3912,-187.8489"/>
</g>
<!-- 24&#45;&gt;11 -->
<g id="edge28" class="edge">
<title>24&#45;&gt;11</title>
<path fill="none" stroke="#c0c0c0" stroke-width="2" d="M939.3929,-215.8314C946.4904,-207.454 955.048,-197.3531 962.824,-188.1749"/>
<polygon fill="#c0c0c0" stroke="#c0c0c0" stroke-width="2" points="965.6061,-190.3056 969.3999,-180.4133 960.2652,-185.7807 965.6061,-190.3056"/>
</g>
<!-- 25 -->
<g id="node26" class="node">
<title>25</title>
<path fill="none" stroke="#d8a456" stroke-width="2" stroke-dasharray="5,2" d="M1143,-252C1143,-252 1023,-252 1023,-252 1017,-252 1011,-246 1011,-240 1011,-240 1011,-228 1011,-228 1011,-222 1017,-216 1023,-216 1023,-216 1143,-216 1143,-216 1149,-216 1155,-222 1155,-228 1155,-228 1155,-240 1155,-240 1155,-246 1149,-252 1143,-252"/>
<text text-anchor="middle" x="1083" y="-231.5" font-family="sans" font-size="10.00" fill="#000000">download_genePredToBed</text>
</g>
<!-- 25&#45;&gt;11 -->
<g id="edge29" class="edge">
<title>25&#45;&gt;11</title>
<path fill="none" stroke="#c0c0c0" stroke-width="2" d="M1058.2705,-215.8314C1046.0838,-206.8779 1031.2177,-195.9558 1018.0688,-186.2955"/>
<polygon fill="#c0c0c0" stroke="#c0c0c0" stroke-width="2" points="1019.8527,-183.263 1009.7216,-180.1628 1015.7082,-188.9042 1019.8527,-183.263"/>
</g>
<!-- 26 -->
<g id="node27" class="node">
<title>26</title>
<path fill="none" stroke="#56d8b9" stroke-width="2" stroke-dasharray="5,2" d="M172,-252C172,-252 110,-252 110,-252 104,-252 98,-246 98,-240 98,-240 98,-228 98,-228 98,-222 104,-216 110,-216 110,-216 172,-216 172,-216 178,-216 184,-222 184,-228 184,-228 184,-240 184,-240 184,-246 178,-252 172,-252"/>
<text text-anchor="middle" x="141" y="-231.5" font-family="sans" font-size="10.00" fill="#000000">samtools_sort</text>
</g>
<!-- 26&#45;&gt;12 -->
<g id="edge30" class="edge">
<title>26&#45;&gt;12</title>
<path fill="none" stroke="#c0c0c0" stroke-width="2" d="M182.8888,-215.8314C205.0903,-206.2018 232.5422,-194.295 255.9784,-184.1299"/>
<polygon fill="#c0c0c0" stroke="#c0c0c0" stroke-width="2" points="257.6309,-187.2282 265.4124,-180.038 254.8455,-180.8062 257.6309,-187.2282"/>
</g>
<!-- 27 -->
<g id="node28" class="node">
<title>27</title>
<path fill="none" stroke="#56d8b9" stroke-width="2" stroke-dasharray="5,2" d="M287,-252C287,-252 225,-252 225,-252 219,-252 213,-246 213,-240 213,-240 213,-228 213,-228 213,-222 219,-216 225,-216 225,-216 287,-216 287,-216 293,-216 299,-222 299,-228 299,-228 299,-240 299,-240 299,-246 293,-252 287,-252"/>
<text text-anchor="middle" x="256" y="-231.5" font-family="sans" font-size="10.00" fill="#000000">samtools_sort</text>
</g>
<!-- 27&#45;&gt;13 -->
<g id="edge33" class="edge">
<title>27&#45;&gt;13</title>
<path fill="none" stroke="#c0c0c0" stroke-width="2" d="M294.356,-215.8314C314.5044,-206.2874 339.3752,-194.5065 360.7083,-184.4013"/>
<polygon fill="#c0c0c0" stroke="#c0c0c0" stroke-width="2" points="362.3807,-187.482 369.9198,-180.038 359.3841,-181.1558 362.3807,-187.482"/>
</g>
<!-- 28 -->
<g id="node29" class="node">
<title>28</title>
<path fill="none" stroke="#56d8b9" stroke-width="2" stroke-dasharray="5,2" d="M605,-252C605,-252 543,-252 543,-252 537,-252 531,-246 531,-240 531,-240 531,-228 531,-228 531,-222 537,-216 543,-216 543,-216 605,-216 605,-216 611,-216 617,-222 617,-228 617,-228 617,-240 617,-240 617,-246 611,-252 605,-252"/>
<text text-anchor="middle" x="574" y="-231.5" font-family="sans" font-size="10.00" fill="#000000">samtools_sort</text>
</g>
<!-- 28&#45;&gt;15 -->
<g id="edge35" class="edge">
<title>28&#45;&gt;15</title>
<path fill="none" stroke="#c0c0c0" stroke-width="2" d="M608.5709,-215.8314C626.4185,-206.4516 648.3774,-194.9112 667.38,-184.9244"/>
<polygon fill="#c0c0c0" stroke="#c0c0c0" stroke-width="2" points="669.2164,-187.9132 676.4402,-180.1628 665.9599,-181.7168 669.2164,-187.9132"/>
</g>
<!-- 29 -->
<g id="node30" class="node">
<title>29</title>
<path fill="none" stroke="#56d8b9" stroke-width="2" stroke-dasharray="5,2" d="M825,-252C825,-252 763,-252 763,-252 757,-252 751,-246 751,-240 751,-240 751,-228 751,-228 751,-222 757,-216 763,-216 763,-216 825,-216 825,-216 831,-216 837,-222 837,-228 837,-228 837,-240 837,-240 837,-246 831,-252 825,-252"/>
<text text-anchor="middle" x="794" y="-231.5" font-family="sans" font-size="10.00" fill="#000000">samtools_sort</text>
</g>
<!-- 29&#45;&gt;16 -->
<g id="edge36" class="edge">
<title>29&#45;&gt;16</title>
<path fill="none" stroke="#c0c0c0" stroke-width="2" d="M798.5422,-215.8314C800.4884,-208.0463 802.8068,-198.7729 804.9663,-190.1347"/>
<polygon fill="#c0c0c0" stroke="#c0c0c0" stroke-width="2" points="808.3668,-190.9636 807.3967,-180.4133 801.5758,-189.2658 808.3668,-190.9636"/>
</g>
<!-- 30 -->
<g id="node31" class="node">
<title>30</title>
<path fill="none" stroke="#56d8b9" stroke-width="2" stroke-dasharray="5,2" d="M1285,-252C1285,-252 1223,-252 1223,-252 1217,-252 1211,-246 1211,-240 1211,-240 1211,-228 1211,-228 1211,-222 1217,-216 1223,-216 1223,-216 1285,-216 1285,-216 1291,-216 1297,-222 1297,-228 1297,-228 1297,-240 1297,-240 1297,-246 1291,-252 1285,-252"/>
<text text-anchor="middle" x="1254" y="-231.5" font-family="sans" font-size="10.00" fill="#000000">samtools_sort</text>
</g>
<!-- 30&#45;&gt;17 -->
<g id="edge38" class="edge">
<title>30&#45;&gt;17</title>
<path fill="none" stroke="#c0c0c0" stroke-width="2" d="M1248.9532,-215.8314C1246.7906,-208.0463 1244.2147,-198.7729 1241.8152,-190.1347"/>
<polygon fill="#c0c0c0" stroke="#c0c0c0" stroke-width="2" points="1245.1636,-189.1117 1239.1148,-180.4133 1238.419,-190.9852 1245.1636,-189.1117"/>
</g>
<!-- 31 -->
<g id="node32" class="node">
<title>31</title>
<path fill="none" stroke="#56d8b9" stroke-width="2" stroke-dasharray="5,2" d="M1389,-252C1389,-252 1327,-252 1327,-252 1321,-252 1315,-246 1315,-240 1315,-240 1315,-228 1315,-228 1315,-222 1321,-216 1327,-216 1327,-216 1389,-216 1389,-216 1395,-216 1401,-222 1401,-228 1401,-228 1401,-240 1401,-240 1401,-246 1395,-252 1389,-252"/>
<text text-anchor="middle" x="1358" y="-231.5" font-family="sans" font-size="10.00" fill="#000000">samtools_sort</text>
</g>
<!-- 31&#45;&gt;18 -->
<g id="edge40" class="edge">
<title>31&#45;&gt;18</title>
<path fill="none" stroke="#c0c0c0" stroke-width="2" d="M1352.1961,-215.8314C1349.7092,-208.0463 1346.7469,-198.7729 1343.9875,-190.1347"/>
<polygon fill="#c0c0c0" stroke="#c0c0c0" stroke-width="2" points="1347.2591,-188.874 1340.882,-180.4133 1340.591,-191.0041 1347.2591,-188.874"/>
</g>
<!-- 32 -->
<g id="node33" class="node">
<title>32</title>
<path fill="none" stroke="#56d8b9" stroke-width="2" stroke-dasharray="5,2" d="M1499,-252C1499,-252 1437,-252 1437,-252 1431,-252 1425,-246 1425,-240 1425,-240 1425,-228 1425,-228 1425,-222 1431,-216 1437,-216 1437,-216 1499,-216 1499,-216 1505,-216 1511,-222 1511,-228 1511,-228 1511,-240 1511,-240 1511,-246 1505,-252 1499,-252"/>
<text text-anchor="middle" x="1468" y="-231.5" font-family="sans" font-size="10.00" fill="#000000">samtools_sort</text>
</g>
<!-- 32&#45;&gt;19 -->
<g id="edge43" class="edge">
<title>32&#45;&gt;19</title>
<path fill="none" stroke="#c0c0c0" stroke-width="2" d="M1459.925,-215.8314C1456.3898,-207.8771 1452.164,-198.369 1448.2544,-189.5723"/>
<polygon fill="#c0c0c0" stroke="#c0c0c0" stroke-width="2" points="1451.4435,-188.1299 1444.1837,-180.4133 1445.0468,-190.9729 1451.4435,-188.1299"/>
</g>
<!-- 33 -->
<g id="node34" class="node">
<title>33</title>
<path fill="none" stroke="#56d8b9" stroke-width="2" stroke-dasharray="5,2" d="M1629,-252C1629,-252 1567,-252 1567,-252 1561,-252 1555,-246 1555,-240 1555,-240 1555,-228 1555,-228 1555,-222 1561,-216 1567,-216 1567,-216 1629,-216 1629,-216 1635,-216 1641,-222 1641,-228 1641,-228 1641,-240 1641,-240 1641,-246 1635,-252 1629,-252"/>
<text text-anchor="middle" x="1598" y="-231.5" font-family="sans" font-size="10.00" fill="#000000">samtools_sort</text>
</g>
<!-- 33&#45;&gt;20 -->
<g id="edge44" class="edge">
<title>33&#45;&gt;20</title>
<path fill="none" stroke="#c0c0c0" stroke-width="2" d="M1582.6071,-215.8314C1575.5096,-207.454 1566.952,-197.3531 1559.176,-188.1749"/>
<polygon fill="#c0c0c0" stroke="#c0c0c0" stroke-width="2" points="1561.7348,-185.7807 1552.6001,-180.4133 1556.3939,-190.3056 1561.7348,-185.7807"/>
</g>
<!-- 34 -->
<g id="node35" class="node">
<title>34</title>
<path fill="none" stroke="#56d86b" stroke-width="2" stroke-dasharray="5,2" d="M389.5,-324C389.5,-324 342.5,-324 342.5,-324 336.5,-324 330.5,-318 330.5,-312 330.5,-312 330.5,-300 330.5,-300 330.5,-294 336.5,-288 342.5,-288 342.5,-288 389.5,-288 389.5,-288 395.5,-288 401.5,-294 401.5,-300 401.5,-300 401.5,-312 401.5,-312 401.5,-318 395.5,-324 389.5,-324"/>
<text text-anchor="middle" x="366" y="-303.5" font-family="sans" font-size="10.00" fill="#000000">map_reads</text>
</g>
<!-- 34&#45;&gt;21 -->
<g id="edge46" class="edge">
<title>34&#45;&gt;21</title>
<path fill="none" stroke="#c0c0c0" stroke-width="2" d="M366,-287.8314C366,-280.131 366,-270.9743 366,-262.4166"/>
<polygon fill="#c0c0c0" stroke="#c0c0c0" stroke-width="2" points="369.5001,-262.4132 366,-252.4133 362.5001,-262.4133 369.5001,-262.4132"/>
</g>
<!-- 35 -->
<g id="node36" class="node">
<title>35</title>
<path fill="none" stroke="#d8bc56" stroke-width="2" stroke-dasharray="5,2" d="M753,-324C753,-324 625,-324 625,-324 619,-324 613,-318 613,-312 613,-312 613,-300 613,-300 613,-294 619,-288 625,-288 625,-288 753,-288 753,-288 759,-288 765,-294 765,-300 765,-300 765,-312 765,-312 765,-318 759,-324 753,-324"/>
<text text-anchor="middle" x="689" y="-303.5" font-family="sans" font-size="10.00" fill="#000000">download_fetchChromSizes</text>
</g>
<!-- 35&#45;&gt;22 -->
<g id="edge47" class="edge">
<title>35&#45;&gt;22</title>
<path fill="none" stroke="#c0c0c0" stroke-width="2" d="M687.7383,-287.8314C687.2035,-280.131 686.5677,-270.9743 685.9734,-262.4166"/>
<polygon fill="#c0c0c0" stroke="#c0c0c0" stroke-width="2" points="689.4632,-262.1467 685.2787,-252.4133 682.48,-262.6317 689.4632,-262.1467"/>
</g>
<!-- 36 -->
<g id="node37" class="node">
<title>36</title>
<path fill="none" stroke="#56d86b" stroke-width="2" stroke-dasharray="5,2" d="M493.5,-324C493.5,-324 446.5,-324 446.5,-324 440.5,-324 434.5,-318 434.5,-312 434.5,-312 434.5,-300 434.5,-300 434.5,-294 440.5,-288 446.5,-288 446.5,-288 493.5,-288 493.5,-288 499.5,-288 505.5,-294 505.5,-300 505.5,-300 505.5,-312 505.5,-312 505.5,-318 499.5,-324 493.5,-324"/>
<text text-anchor="middle" x="470" y="-303.5" font-family="sans" font-size="10.00" fill="#000000">map_reads</text>
</g>
<!-- 36&#45;&gt;23 -->
<g id="edge48" class="edge">
<title>36&#45;&gt;23</title>
<path fill="none" stroke="#c0c0c0" stroke-width="2" d="M470,-287.8314C470,-280.131 470,-270.9743 470,-262.4166"/>
<polygon fill="#c0c0c0" stroke="#c0c0c0" stroke-width="2" points="473.5001,-262.4132 470,-252.4133 466.5001,-262.4133 473.5001,-262.4132"/>
</g>
<!-- 37 -->
<g id="node38" class="node">
<title>37</title>
<path fill="none" stroke="#8fd856" stroke-width="2" stroke-dasharray="5,2" d="M1001,-324C1001,-324 885,-324 885,-324 879,-324 873,-318 873,-312 873,-312 873,-300 873,-300 873,-294 879,-288 885,-288 885,-288 1001,-288 1001,-288 1007,-288 1013,-294 1013,-300 1013,-300 1013,-312 1013,-312 1013,-318 1007,-324 1001,-324"/>
<text text-anchor="middle" x="943" y="-303.5" font-family="sans" font-size="10.00" fill="#000000">download_gtfToGenePred</text>
</g>
<!-- 37&#45;&gt;24 -->
<g id="edge49" class="edge">
<title>37&#45;&gt;24</title>
<path fill="none" stroke="#c0c0c0" stroke-width="2" d="M938.2055,-287.8314C936.1511,-280.0463 933.704,-270.7729 931.4244,-262.1347"/>
<polygon fill="#c0c0c0" stroke="#c0c0c0" stroke-width="2" points="934.7948,-261.1892 928.8591,-252.4133 928.0265,-262.9753 934.7948,-261.1892"/>
</g>
<!-- 38 -->
<g id="node39" class="node">
<title>38</title>
<path fill="none" stroke="#56d86b" stroke-width="2" stroke-dasharray="5,2" d="M158.5,-324C158.5,-324 111.5,-324 111.5,-324 105.5,-324 99.5,-318 99.5,-312 99.5,-312 99.5,-300 99.5,-300 99.5,-294 105.5,-288 111.5,-288 111.5,-288 158.5,-288 158.5,-288 164.5,-288 170.5,-294 170.5,-300 170.5,-300 170.5,-312 170.5,-312 170.5,-318 164.5,-324 158.5,-324"/>
<text text-anchor="middle" x="135" y="-303.5" font-family="sans" font-size="10.00" fill="#000000">map_reads</text>
</g>
<!-- 38&#45;&gt;26 -->
<g id="edge51" class="edge">
<title>38&#45;&gt;26</title>
<path fill="none" stroke="#c0c0c0" stroke-width="2" d="M136.5141,-287.8314C137.1558,-280.131 137.9188,-270.9743 138.6319,-262.4166"/>
<polygon fill="#c0c0c0" stroke="#c0c0c0" stroke-width="2" points="142.1229,-262.6694 139.4656,-252.4133 135.1471,-262.088 142.1229,-262.6694"/>
</g>
<!-- 39 -->
<g id="node40" class="node">
<title>39</title>
<path fill="none" stroke="#56d86b" stroke-width="2" stroke-dasharray="5,2" d="M260.5,-324C260.5,-324 213.5,-324 213.5,-324 207.5,-324 201.5,-318 201.5,-312 201.5,-312 201.5,-300 201.5,-300 201.5,-294 207.5,-288 213.5,-288 213.5,-288 260.5,-288 260.5,-288 266.5,-288 272.5,-294 272.5,-300 272.5,-300 272.5,-312 272.5,-312 272.5,-318 266.5,-324 260.5,-324"/>
<text text-anchor="middle" x="237" y="-303.5" font-family="sans" font-size="10.00" fill="#000000">map_reads</text>
</g>
<!-- 39&#45;&gt;27 -->
<g id="edge52" class="edge">
<title>39&#45;&gt;27</title>
<path fill="none" stroke="#c0c0c0" stroke-width="2" d="M241.7945,-287.8314C243.8489,-280.0463 246.296,-270.7729 248.5756,-262.1347"/>
<polygon fill="#c0c0c0" stroke="#c0c0c0" stroke-width="2" points="251.9735,-262.9753 251.1409,-252.4133 245.2052,-261.1892 251.9735,-262.9753"/>
</g>
<!-- 40 -->
<g id="node41" class="node">
<title>40</title>
<path fill="none" stroke="#56d86b" stroke-width="2" stroke-dasharray="5,2" d="M582.5,-324C582.5,-324 535.5,-324 535.5,-324 529.5,-324 523.5,-318 523.5,-312 523.5,-312 523.5,-300 523.5,-300 523.5,-294 529.5,-288 535.5,-288 535.5,-288 582.5,-288 582.5,-288 588.5,-288 594.5,-294 594.5,-300 594.5,-300 594.5,-312 594.5,-312 594.5,-318 588.5,-324 582.5,-324"/>
<text text-anchor="middle" x="559" y="-303.5" font-family="sans" font-size="10.00" fill="#000000">map_reads</text>
</g>
<!-- 40&#45;&gt;28 -->
<g id="edge53" class="edge">
<title>40&#45;&gt;28</title>
<path fill="none" stroke="#c0c0c0" stroke-width="2" d="M562.7851,-287.8314C564.3894,-280.131 566.297,-270.9743 568.0799,-262.4166"/>
<polygon fill="#c0c0c0" stroke="#c0c0c0" stroke-width="2" points="571.5507,-262.9169 570.1639,-252.4133 564.6979,-261.4892 571.5507,-262.9169"/>
</g>
<!-- 41 -->
<g id="node42" class="node">
<title>41</title>
<path fill="none" stroke="#56d86b" stroke-width="2" stroke-dasharray="5,2" d="M842.5,-324C842.5,-324 795.5,-324 795.5,-324 789.5,-324 783.5,-318 783.5,-312 783.5,-312 783.5,-300 783.5,-300 783.5,-294 789.5,-288 795.5,-288 795.5,-288 842.5,-288 842.5,-288 848.5,-288 854.5,-294 854.5,-300 854.5,-300 854.5,-312 854.5,-312 854.5,-318 848.5,-324 842.5,-324"/>
<text text-anchor="middle" x="819" y="-303.5" font-family="sans" font-size="10.00" fill="#000000">map_reads</text>
</g>
<!-- 41&#45;&gt;29 -->
<g id="edge54" class="edge">
<title>41&#45;&gt;29</title>
<path fill="none" stroke="#c0c0c0" stroke-width="2" d="M812.6914,-287.8314C809.9883,-280.0463 806.7684,-270.7729 803.769,-262.1347"/>
<polygon fill="#c0c0c0" stroke="#c0c0c0" stroke-width="2" points="806.98,-260.7119 800.3935,-252.4133 800.3673,-263.0081 806.98,-260.7119"/>
</g>
<!-- 42 -->
<g id="node43" class="node">
<title>42</title>
<path fill="none" stroke="#56d86b" stroke-width="2" stroke-dasharray="5,2" d="M1243.5,-324C1243.5,-324 1196.5,-324 1196.5,-324 1190.5,-324 1184.5,-318 1184.5,-312 1184.5,-312 1184.5,-300 1184.5,-300 1184.5,-294 1190.5,-288 1196.5,-288 1196.5,-288 1243.5,-288 1243.5,-288 1249.5,-288 1255.5,-294 1255.5,-300 1255.5,-300 1255.5,-312 1255.5,-312 1255.5,-318 1249.5,-324 1243.5,-324"/>
<text text-anchor="middle" x="1220" y="-303.5" font-family="sans" font-size="10.00" fill="#000000">map_reads</text>
</g>
<!-- 42&#45;&gt;30 -->
<g id="edge55" class="edge">
<title>42&#45;&gt;30</title>
<path fill="none" stroke="#c0c0c0" stroke-width="2" d="M1228.5796,-287.8314C1232.3358,-279.8771 1236.8257,-270.369 1240.9798,-261.5723"/>
<polygon fill="#c0c0c0" stroke="#c0c0c0" stroke-width="2" points="1244.1996,-262.9503 1245.3048,-252.4133 1237.8699,-259.9612 1244.1996,-262.9503"/>
</g>
<!-- 43 -->
<g id="node44" class="node">
<title>43</title>
<path fill="none" stroke="#56d86b" stroke-width="2" stroke-dasharray="5,2" d="M1370.5,-324C1370.5,-324 1323.5,-324 1323.5,-324 1317.5,-324 1311.5,-318 1311.5,-312 1311.5,-312 1311.5,-300 1311.5,-300 1311.5,-294 1317.5,-288 1323.5,-288 1323.5,-288 1370.5,-288 1370.5,-288 1376.5,-288 1382.5,-294 1382.5,-300 1382.5,-300 1382.5,-312 1382.5,-312 1382.5,-318 1376.5,-324 1370.5,-324"/>
<text text-anchor="middle" x="1347" y="-303.5" font-family="sans" font-size="10.00" fill="#000000">map_reads</text>
</g>
<!-- 43&#45;&gt;31 -->
<g id="edge56" class="edge">
<title>43&#45;&gt;31</title>
<path fill="none" stroke="#c0c0c0" stroke-width="2" d="M1349.7758,-287.8314C1350.9522,-280.131 1352.3511,-270.9743 1353.6586,-262.4166"/>
<polygon fill="#c0c0c0" stroke="#c0c0c0" stroke-width="2" points="1357.1364,-262.8272 1355.1869,-252.4133 1350.2167,-261.7699 1357.1364,-262.8272"/>
</g>
<!-- 44 -->
<g id="node45" class="node">
<title>44</title>
<path fill="none" stroke="#56d86b" stroke-width="2" stroke-dasharray="5,2" d="M1494.5,-324C1494.5,-324 1447.5,-324 1447.5,-324 1441.5,-324 1435.5,-318 1435.5,-312 1435.5,-312 1435.5,-300 1435.5,-300 1435.5,-294 1441.5,-288 1447.5,-288 1447.5,-288 1494.5,-288 1494.5,-288 1500.5,-288 1506.5,-294 1506.5,-300 1506.5,-300 1506.5,-312 1506.5,-312 1506.5,-318 1500.5,-324 1494.5,-324"/>
<text text-anchor="middle" x="1471" y="-303.5" font-family="sans" font-size="10.00" fill="#000000">map_reads</text>
</g>
<!-- 44&#45;&gt;32 -->
<g id="edge57" class="edge">
<title>44&#45;&gt;32</title>
<path fill="none" stroke="#c0c0c0" stroke-width="2" d="M1470.243,-287.8314C1469.9221,-280.131 1469.5406,-270.9743 1469.184,-262.4166"/>
<polygon fill="#c0c0c0" stroke="#c0c0c0" stroke-width="2" points="1472.6806,-262.2589 1468.7672,-252.4133 1465.6867,-262.5503 1472.6806,-262.2589"/>
</g>
<!-- 45 -->
<g id="node46" class="node">
<title>45</title>
<path fill="none" stroke="#56d86b" stroke-width="2" stroke-dasharray="5,2" d="M1634.5,-324C1634.5,-324 1587.5,-324 1587.5,-324 1581.5,-324 1575.5,-318 1575.5,-312 1575.5,-312 1575.5,-300 1575.5,-300 1575.5,-294 1581.5,-288 1587.5,-288 1587.5,-288 1634.5,-288 1634.5,-288 1640.5,-288 1646.5,-294 1646.5,-300 1646.5,-300 1646.5,-312 1646.5,-312 1646.5,-318 1640.5,-324 1634.5,-324"/>
<text text-anchor="middle" x="1611" y="-303.5" font-family="sans" font-size="10.00" fill="#000000">map_reads</text>
</g>
<!-- 45&#45;&gt;33 -->
<g id="edge58" class="edge">
<title>45&#45;&gt;33</title>
<path fill="none" stroke="#c0c0c0" stroke-width="2" d="M1607.7196,-287.8314C1606.3292,-280.131 1604.6759,-270.9743 1603.1308,-262.4166"/>
<polygon fill="#c0c0c0" stroke="#c0c0c0" stroke-width="2" points="1606.5458,-261.6322 1601.3246,-252.4133 1599.6572,-262.8761 1606.5458,-261.6322"/>
</g>
<!-- 46 -->
<g id="node47" class="node">
<title>46</title>
<path fill="none" stroke="#59d856" stroke-width="2" stroke-dasharray="5,2" d="M388.5,-396C388.5,-396 343.5,-396 343.5,-396 337.5,-396 331.5,-390 331.5,-384 331.5,-384 331.5,-372 331.5,-372 331.5,-366 337.5,-360 343.5,-360 343.5,-360 388.5,-360 388.5,-360 394.5,-360 400.5,-366 400.5,-372 400.5,-372 400.5,-384 400.5,-384 400.5,-390 394.5,-396 388.5,-396"/>
<text text-anchor="middle" x="366" y="-375.5" font-family="sans" font-size="10.00" fill="#000000">trim_reads</text>
</g>
<!-- 46&#45;&gt;34 -->
<g id="edge59" class="edge">
<title>46&#45;&gt;34</title>
<path fill="none" stroke="#c0c0c0" stroke-width="2" d="M366,-359.8314C366,-352.131 366,-342.9743 366,-334.4166"/>
<polygon fill="#c0c0c0" stroke="#c0c0c0" stroke-width="2" points="369.5001,-334.4132 366,-324.4133 362.5001,-334.4133 369.5001,-334.4132"/>
</g>
<!-- 47 -->
<g id="node48" class="node">
<title>47</title>
<path fill="none" stroke="#59d856" stroke-width="2" stroke-dasharray="5,2" d="M493.5,-396C493.5,-396 448.5,-396 448.5,-396 442.5,-396 436.5,-390 436.5,-384 436.5,-384 436.5,-372 436.5,-372 436.5,-366 442.5,-360 448.5,-360 448.5,-360 493.5,-360 493.5,-360 499.5,-360 505.5,-366 505.5,-372 505.5,-372 505.5,-384 505.5,-384 505.5,-390 499.5,-396 493.5,-396"/>
<text text-anchor="middle" x="471" y="-375.5" font-family="sans" font-size="10.00" fill="#000000">trim_reads</text>
</g>
<!-- 47&#45;&gt;36 -->
<g id="edge60" class="edge">
<title>47&#45;&gt;36</title>
<path fill="none" stroke="#c0c0c0" stroke-width="2" d="M470.7477,-359.8314C470.6407,-352.131 470.5135,-342.9743 470.3947,-334.4166"/>
<polygon fill="#c0c0c0" stroke="#c0c0c0" stroke-width="2" points="473.8944,-334.3637 470.2557,-324.4133 466.8951,-334.4609 473.8944,-334.3637"/>
</g>
<!-- 48 -->
<g id="node49" class="node">
<title>48</title>
<path fill="none" stroke="#59d856" stroke-width="2" stroke-dasharray="5,2" d="M111.5,-396C111.5,-396 66.5,-396 66.5,-396 60.5,-396 54.5,-390 54.5,-384 54.5,-384 54.5,-372 54.5,-372 54.5,-366 60.5,-360 66.5,-360 66.5,-360 111.5,-360 111.5,-360 117.5,-360 123.5,-366 123.5,-372 123.5,-372 123.5,-384 123.5,-384 123.5,-390 117.5,-396 111.5,-396"/>
<text text-anchor="middle" x="89" y="-375.5" font-family="sans" font-size="10.00" fill="#000000">trim_reads</text>
</g>
<!-- 48&#45;&gt;38 -->
<g id="edge61" class="edge">
<title>48&#45;&gt;38</title>
<path fill="none" stroke="#c0c0c0" stroke-width="2" d="M100.6077,-359.8314C105.7978,-351.7079 112.0232,-341.9637 117.7425,-333.0118"/>
<polygon fill="#c0c0c0" stroke="#c0c0c0" stroke-width="2" points="120.8015,-334.7246 123.236,-324.4133 114.9026,-330.9559 120.8015,-334.7246"/>
</g>
<!-- 49 -->
<g id="node50" class="node">
<title>49</title>
<path fill="none" stroke="#59d856" stroke-width="2" stroke-dasharray="5,2" d="M248.5,-396C248.5,-396 203.5,-396 203.5,-396 197.5,-396 191.5,-390 191.5,-384 191.5,-384 191.5,-372 191.5,-372 191.5,-366 197.5,-360 203.5,-360 203.5,-360 248.5,-360 248.5,-360 254.5,-360 260.5,-366 260.5,-372 260.5,-372 260.5,-384 260.5,-384 260.5,-390 254.5,-396 248.5,-396"/>
<text text-anchor="middle" x="226" y="-375.5" font-family="sans" font-size="10.00" fill="#000000">trim_reads</text>
</g>
<!-- 49&#45;&gt;39 -->
<g id="edge62" class="edge">
<title>49&#45;&gt;39</title>
<path fill="none" stroke="#c0c0c0" stroke-width="2" d="M228.7758,-359.8314C229.9522,-352.131 231.3511,-342.9743 232.6586,-334.4166"/>
<polygon fill="#c0c0c0" stroke="#c0c0c0" stroke-width="2" points="236.1364,-334.8272 234.1869,-324.4133 229.2167,-333.7699 236.1364,-334.8272"/>
</g>
<!-- 50 -->
<g id="node51" class="node">
<title>50</title>
<path fill="none" stroke="#59d856" stroke-width="2" stroke-dasharray="5,2" d="M634.5,-396C634.5,-396 589.5,-396 589.5,-396 583.5,-396 577.5,-390 577.5,-384 577.5,-384 577.5,-372 577.5,-372 577.5,-366 583.5,-360 589.5,-360 589.5,-360 634.5,-360 634.5,-360 640.5,-360 646.5,-366 646.5,-372 646.5,-372 646.5,-384 646.5,-384 646.5,-390 640.5,-396 634.5,-396"/>
<text text-anchor="middle" x="612" y="-375.5" font-family="sans" font-size="10.00" fill="#000000">trim_reads</text>
</g>
<!-- 50&#45;&gt;40 -->
<g id="edge63" class="edge">
<title>50&#45;&gt;40</title>
<path fill="none" stroke="#c0c0c0" stroke-width="2" d="M598.6259,-359.8314C592.5838,-351.6232 585.3237,-341.7606 578.6779,-332.7323"/>
<polygon fill="#c0c0c0" stroke="#c0c0c0" stroke-width="2" points="581.3011,-330.3918 572.5542,-324.4133 575.6637,-334.5415 581.3011,-330.3918"/>
</g>
<!-- 51 -->
<g id="node52" class="node">
<title>51</title>
<path fill="none" stroke="#59d856" stroke-width="2" stroke-dasharray="5,2" d="M841.5,-396C841.5,-396 796.5,-396 796.5,-396 790.5,-396 784.5,-390 784.5,-384 784.5,-384 784.5,-372 784.5,-372 784.5,-366 790.5,-360 796.5,-360 796.5,-360 841.5,-360 841.5,-360 847.5,-360 853.5,-366 853.5,-372 853.5,-372 853.5,-384 853.5,-384 853.5,-390 847.5,-396 841.5,-396"/>
<text text-anchor="middle" x="819" y="-375.5" font-family="sans" font-size="10.00" fill="#000000">trim_reads</text>
</g>
<!-- 51&#45;&gt;41 -->
<g id="edge64" class="edge">
<title>51&#45;&gt;41</title>
<path fill="none" stroke="#c0c0c0" stroke-width="2" d="M819,-359.8314C819,-352.131 819,-342.9743 819,-334.4166"/>
<polygon fill="#c0c0c0" stroke="#c0c0c0" stroke-width="2" points="822.5001,-334.4132 819,-324.4133 815.5001,-334.4133 822.5001,-334.4132"/>
</g>
<!-- 52 -->
<g id="node53" class="node">
<title>52</title>
<path fill="none" stroke="#59d856" stroke-width="2" stroke-dasharray="5,2" d="M1218.5,-396C1218.5,-396 1173.5,-396 1173.5,-396 1167.5,-396 1161.5,-390 1161.5,-384 1161.5,-384 1161.5,-372 1161.5,-372 1161.5,-366 1167.5,-360 1173.5,-360 1173.5,-360 1218.5,-360 1218.5,-360 1224.5,-360 1230.5,-366 1230.5,-372 1230.5,-372 1230.5,-384 1230.5,-384 1230.5,-390 1224.5,-396 1218.5,-396"/>
<text text-anchor="middle" x="1196" y="-375.5" font-family="sans" font-size="10.00" fill="#000000">trim_reads</text>
</g>
<!-- 52&#45;&gt;42 -->
<g id="edge65" class="edge">
<title>52&#45;&gt;42</title>
<path fill="none" stroke="#c0c0c0" stroke-width="2" d="M1202.0562,-359.8314C1204.6512,-352.0463 1207.7424,-342.7729 1210.6218,-334.1347"/>
<polygon fill="#c0c0c0" stroke="#c0c0c0" stroke-width="2" points="1214.0203,-335.0069 1213.8622,-324.4133 1207.3795,-332.7933 1214.0203,-335.0069"/>
</g>
<!-- 53 -->
<g id="node54" class="node">
<title>53</title>
<path fill="none" stroke="#59d856" stroke-width="2" stroke-dasharray="5,2" d="M1346.5,-396C1346.5,-396 1301.5,-396 1301.5,-396 1295.5,-396 1289.5,-390 1289.5,-384 1289.5,-384 1289.5,-372 1289.5,-372 1289.5,-366 1295.5,-360 1301.5,-360 1301.5,-360 1346.5,-360 1346.5,-360 1352.5,-360 1358.5,-366 1358.5,-372 1358.5,-372 1358.5,-384 1358.5,-384 1358.5,-390 1352.5,-396 1346.5,-396"/>
<text text-anchor="middle" x="1324" y="-375.5" font-family="sans" font-size="10.00" fill="#000000">trim_reads</text>
</g>
<!-- 53&#45;&gt;43 -->
<g id="edge66" class="edge">
<title>53&#45;&gt;43</title>
<path fill="none" stroke="#c0c0c0" stroke-width="2" d="M1329.8039,-359.8314C1332.2908,-352.0463 1335.2531,-342.7729 1338.0125,-334.1347"/>
<polygon fill="#c0c0c0" stroke="#c0c0c0" stroke-width="2" points="1341.409,-335.0041 1341.118,-324.4133 1334.7409,-332.874 1341.409,-335.0041"/>
</g>
<!-- 54 -->
<g id="node55" class="node">
<title>54</title>
<path fill="none" stroke="#59d856" stroke-width="2" stroke-dasharray="5,2" d="M1494.5,-396C1494.5,-396 1449.5,-396 1449.5,-396 1443.5,-396 1437.5,-390 1437.5,-384 1437.5,-384 1437.5,-372 1437.5,-372 1437.5,-366 1443.5,-360 1449.5,-360 1449.5,-360 1494.5,-360 1494.5,-360 1500.5,-360 1506.5,-366 1506.5,-372 1506.5,-372 1506.5,-384 1506.5,-384 1506.5,-390 1500.5,-396 1494.5,-396"/>
<text text-anchor="middle" x="1472" y="-375.5" font-family="sans" font-size="10.00" fill="#000000">trim_reads</text>
</g>
<!-- 54&#45;&gt;44 -->
<g id="edge67" class="edge">
<title>54&#45;&gt;44</title>
<path fill="none" stroke="#c0c0c0" stroke-width="2" d="M1471.7477,-359.8314C1471.6407,-352.131 1471.5135,-342.9743 1471.3947,-334.4166"/>
<polygon fill="#c0c0c0" stroke="#c0c0c0" stroke-width="2" points="1474.8944,-334.3637 1471.2557,-324.4133 1467.8951,-334.4609 1474.8944,-334.3637"/>
</g>
<!-- 55 -->
<g id="node56" class="node">
<title>55</title>
<path fill="none" stroke="#59d856" stroke-width="2" stroke-dasharray="5,2" d="M1639.5,-396C1639.5,-396 1594.5,-396 1594.5,-396 1588.5,-396 1582.5,-390 1582.5,-384 1582.5,-384 1582.5,-372 1582.5,-372 1582.5,-366 1588.5,-360 1594.5,-360 1594.5,-360 1639.5,-360 1639.5,-360 1645.5,-360 1651.5,-366 1651.5,-372 1651.5,-372 1651.5,-384 1651.5,-384 1651.5,-390 1645.5,-396 1639.5,-396"/>
<text text-anchor="middle" x="1617" y="-375.5" font-family="sans" font-size="10.00" fill="#000000">trim_reads</text>
</g>
<!-- 55&#45;&gt;45 -->
<g id="edge68" class="edge">
<title>55&#45;&gt;45</title>
<path fill="none" stroke="#c0c0c0" stroke-width="2" d="M1615.4859,-359.8314C1614.8442,-352.131 1614.0812,-342.9743 1613.3681,-334.4166"/>
<polygon fill="#c0c0c0" stroke="#c0c0c0" stroke-width="2" points="1616.8529,-334.088 1612.5344,-324.4133 1609.8771,-334.6694 1616.8529,-334.088"/>
</g>
<!-- 56 -->
<g id="node57" class="node">
<title>56</title>
<path fill="none" stroke="#80d856" stroke-width="2" stroke-dasharray="5,2" d="M420,-468C420,-468 312,-468 312,-468 306,-468 300,-462 300,-456 300,-456 300,-444 300,-444 300,-438 306,-432 312,-432 312,-432 420,-432 420,-432 426,-432 432,-438 432,-444 432,-444 432,-456 432,-456 432,-462 426,-468 420,-468"/>
<text text-anchor="middle" x="366" y="-453" font-family="sans" font-size="10.00" fill="#000000">download_sequences</text>
<text text-anchor="middle" x="366" y="-442" font-family="sans" font-size="10.00" fill="#000000">accession: SRR1032889</text>
</g>
<!-- 56&#45;&gt;46 -->
<g id="edge69" class="edge">
<title>56&#45;&gt;46</title>
<path fill="none" stroke="#c0c0c0" stroke-width="2" d="M366,-431.8314C366,-424.131 366,-414.9743 366,-406.4166"/>
<polygon fill="#c0c0c0" stroke="#c0c0c0" stroke-width="2" points="369.5001,-406.4132 366,-396.4133 362.5001,-406.4133 369.5001,-406.4132"/>
</g>
<!-- 57 -->
<g id="node58" class="node">
<title>57</title>
<path fill="none" stroke="#80d856" stroke-width="2" stroke-dasharray="5,2" d="M570,-468C570,-468 462,-468 462,-468 456,-468 450,-462 450,-456 450,-456 450,-444 450,-444 450,-438 456,-432 462,-432 462,-432 570,-432 570,-432 576,-432 582,-438 582,-444 582,-444 582,-456 582,-456 582,-462 576,-468 570,-468"/>
<text text-anchor="middle" x="516" y="-453" font-family="sans" font-size="10.00" fill="#000000">download_sequences</text>
<text text-anchor="middle" x="516" y="-442" font-family="sans" font-size="10.00" fill="#000000">accession: SRR1032890</text>
</g>
<!-- 57&#45;&gt;47 -->
<g id="edge70" class="edge">
<title>57&#45;&gt;47</title>
<path fill="none" stroke="#c0c0c0" stroke-width="2" d="M504.6446,-431.8314C499.5674,-423.7079 493.4773,-413.9637 487.8824,-405.0118"/>
<polygon fill="#c0c0c0" stroke="#c0c0c0" stroke-width="2" points="490.7763,-403.0383 482.5083,-396.4133 484.8403,-406.7483 490.7763,-403.0383"/>
</g>
<!-- 58 -->
<g id="node59" class="node">
<title>58</title>
<path fill="none" stroke="#80d856" stroke-width="2" stroke-dasharray="5,2" d="M120,-468C120,-468 12,-468 12,-468 6,-468 0,-462 0,-456 0,-456 0,-444 0,-444 0,-438 6,-432 12,-432 12,-432 120,-432 120,-432 126,-432 132,-438 132,-444 132,-444 132,-456 132,-456 132,-462 126,-468 120,-468"/>
<text text-anchor="middle" x="66" y="-453" font-family="sans" font-size="10.00" fill="#000000">download_sequences</text>
<text text-anchor="middle" x="66" y="-442" font-family="sans" font-size="10.00" fill="#000000">accession: SRR1032892</text>
</g>
<!-- 58&#45;&gt;48 -->
<g id="edge71" class="edge">
<title>58&#45;&gt;48</title>
<path fill="none" stroke="#c0c0c0" stroke-width="2" d="M71.8039,-431.8314C74.2908,-424.0463 77.2531,-414.7729 80.0125,-406.1347"/>
<polygon fill="#c0c0c0" stroke="#c0c0c0" stroke-width="2" points="83.409,-407.0041 83.118,-396.4133 76.7409,-404.874 83.409,-407.0041"/>
</g>
<!-- 59 -->
<g id="node60" class="node">
<title>59</title>
<path fill="none" stroke="#80d856" stroke-width="2" stroke-dasharray="5,2" d="M270,-468C270,-468 162,-468 162,-468 156,-468 150,-462 150,-456 150,-456 150,-444 150,-444 150,-438 156,-432 162,-432 162,-432 270,-432 270,-432 276,-432 282,-438 282,-444 282,-444 282,-456 282,-456 282,-462 276,-468 270,-468"/>
<text text-anchor="middle" x="216" y="-453" font-family="sans" font-size="10.00" fill="#000000">download_sequences</text>
<text text-anchor="middle" x="216" y="-442" font-family="sans" font-size="10.00" fill="#000000">accession: SRR1032891</text>
</g>
<!-- 59&#45;&gt;49 -->
<g id="edge72" class="edge">
<title>59&#45;&gt;49</title>
<path fill="none" stroke="#c0c0c0" stroke-width="2" d="M218.5234,-431.8314C219.5929,-424.131 220.8647,-414.9743 222.0532,-406.4166"/>
<polygon fill="#c0c0c0" stroke="#c0c0c0" stroke-width="2" points="225.5336,-406.7997 223.4426,-396.4133 218.6001,-405.8367 225.5336,-406.7997"/>
</g>
<!-- 60 -->
<g id="node61" class="node">
<title>60</title>
<path fill="none" stroke="#80d856" stroke-width="2" stroke-dasharray="5,2" d="M720,-468C720,-468 612,-468 612,-468 606,-468 600,-462 600,-456 600,-456 600,-444 600,-444 600,-438 606,-432 612,-432 612,-432 720,-432 720,-432 726,-432 732,-438 732,-444 732,-444 732,-456 732,-456 732,-462 726,-468 720,-468"/>
<text text-anchor="middle" x="666" y="-453" font-family="sans" font-size="10.00" fill="#000000">download_sequences</text>
<text text-anchor="middle" x="666" y="-442" font-family="sans" font-size="10.00" fill="#000000">accession: SRR1032896</text>
</g>
<!-- 60&#45;&gt;50 -->
<g id="edge73" class="edge">
<title>60&#45;&gt;50</title>
<path fill="none" stroke="#c0c0c0" stroke-width="2" d="M652.3735,-431.8314C646.154,-423.5386 638.6678,-413.557 631.84,-404.4533"/>
<polygon fill="#c0c0c0" stroke="#c0c0c0" stroke-width="2" points="634.61,-402.3133 625.81,-396.4133 629.01,-406.5133 634.61,-402.3133"/>
</g>
<!-- 61 -->
<g id="node62" class="node">
<title>61</title>
<path fill="none" stroke="#80d856" stroke-width="2" stroke-dasharray="5,2" d="M873,-468C873,-468 765,-468 765,-468 759,-468 753,-462 753,-456 753,-456 753,-444 753,-444 753,-438 759,-432 765,-432 765,-432 873,-432 873,-432 879,-432 885,-438 885,-444 885,-444 885,-456 885,-456 885,-462 879,-468 873,-468"/>
<text text-anchor="middle" x="819" y="-453" font-family="sans" font-size="10.00" fill="#000000">download_sequences</text>
<text text-anchor="middle" x="819" y="-442" font-family="sans" font-size="10.00" fill="#000000">accession: SRR1032895</text>
</g>
<!-- 61&#45;&gt;51 -->
<g id="edge74" class="edge">
<title>61&#45;&gt;51</title>
<path fill="none" stroke="#c0c0c0" stroke-width="2" d="M819,-431.8314C819,-424.131 819,-414.9743 819,-406.4166"/>
<polygon fill="#c0c0c0" stroke="#c0c0c0" stroke-width="2" points="822.5001,-406.4132 819,-396.4133 815.5001,-406.4133 822.5001,-406.4132"/>
</g>
<!-- 62 -->
<g id="node63" class="node">
<title>62</title>
<path fill="none" stroke="#80d856" stroke-width="2" stroke-dasharray="5,2" d="M1227,-468C1227,-468 1119,-468 1119,-468 1113,-468 1107,-462 1107,-456 1107,-456 1107,-444 1107,-444 1107,-438 1113,-432 1119,-432 1119,-432 1227,-432 1227,-432 1233,-432 1239,-438 1239,-444 1239,-444 1239,-456 1239,-456 1239,-462 1233,-468 1227,-468"/>
<text text-anchor="middle" x="1173" y="-453" font-family="sans" font-size="10.00" fill="#000000">download_sequences</text>
<text text-anchor="middle" x="1173" y="-442" font-family="sans" font-size="10.00" fill="#000000">accession: SRR1032878</text>
</g>
<!-- 62&#45;&gt;52 -->
<g id="edge75" class="edge">
<title>62&#45;&gt;52</title>
<path fill="none" stroke="#c0c0c0" stroke-width="2" d="M1178.8039,-431.8314C1181.2908,-424.0463 1184.2531,-414.7729 1187.0125,-406.1347"/>
<polygon fill="#c0c0c0" stroke="#c0c0c0" stroke-width="2" points="1190.409,-407.0041 1190.118,-396.4133 1183.7409,-404.874 1190.409,-407.0041"/>
</g>
<!-- 63 -->
<g id="node64" class="node">
<title>63</title>
<path fill="none" stroke="#80d856" stroke-width="2" stroke-dasharray="5,2" d="M1377,-468C1377,-468 1269,-468 1269,-468 1263,-468 1257,-462 1257,-456 1257,-456 1257,-444 1257,-444 1257,-438 1263,-432 1269,-432 1269,-432 1377,-432 1377,-432 1383,-432 1389,-438 1389,-444 1389,-444 1389,-456 1389,-456 1389,-462 1383,-468 1377,-468"/>
<text text-anchor="middle" x="1323" y="-453" font-family="sans" font-size="10.00" fill="#000000">download_sequences</text>
<text text-anchor="middle" x="1323" y="-442" font-family="sans" font-size="10.00" fill="#000000">accession: SRR1032877</text>
</g>
<!-- 63&#45;&gt;53 -->
<g id="edge76" class="edge">
<title>63&#45;&gt;53</title>
<path fill="none" stroke="#c0c0c0" stroke-width="2" d="M1323.2523,-431.8314C1323.3593,-424.131 1323.4865,-414.9743 1323.6053,-406.4166"/>
<polygon fill="#c0c0c0" stroke="#c0c0c0" stroke-width="2" points="1327.1049,-406.4609 1323.7443,-396.4133 1320.1056,-406.3637 1327.1049,-406.4609"/>
</g>
<!-- 64 -->
<g id="node65" class="node">
<title>64</title>
<path fill="none" stroke="#80d856" stroke-width="2" stroke-dasharray="5,2" d="M1527,-468C1527,-468 1419,-468 1419,-468 1413,-468 1407,-462 1407,-456 1407,-456 1407,-444 1407,-444 1407,-438 1413,-432 1419,-432 1419,-432 1527,-432 1527,-432 1533,-432 1539,-438 1539,-444 1539,-444 1539,-456 1539,-456 1539,-462 1533,-468 1527,-468"/>
<text text-anchor="middle" x="1473" y="-453" font-family="sans" font-size="10.00" fill="#000000">download_sequences</text>
<text text-anchor="middle" x="1473" y="-442" font-family="sans" font-size="10.00" fill="#000000">accession: SRR1032883</text>
</g>
<!-- 64&#45;&gt;54 -->
<g id="edge77" class="edge">
<title>64&#45;&gt;54</title>
<path fill="none" stroke="#c0c0c0" stroke-width="2" d="M1472.7477,-431.8314C1472.6407,-424.131 1472.5135,-414.9743 1472.3947,-406.4166"/>
<polygon fill="#c0c0c0" stroke="#c0c0c0" stroke-width="2" points="1475.8944,-406.3637 1472.2557,-396.4133 1468.8951,-406.4609 1475.8944,-406.3637"/>
</g>
<!-- 65 -->
<g id="node66" class="node">
<title>65</title>
<path fill="none" stroke="#80d856" stroke-width="2" stroke-dasharray="5,2" d="M1677,-468C1677,-468 1569,-468 1569,-468 1563,-468 1557,-462 1557,-456 1557,-456 1557,-444 1557,-444 1557,-438 1563,-432 1569,-432 1569,-432 1677,-432 1677,-432 1683,-432 1689,-438 1689,-444 1689,-444 1689,-456 1689,-456 1689,-462 1683,-468 1677,-468"/>
<text text-anchor="middle" x="1623" y="-453" font-family="sans" font-size="10.00" fill="#000000">download_sequences</text>
<text text-anchor="middle" x="1623" y="-442" font-family="sans" font-size="10.00" fill="#000000">accession: SRR1032884</text>
</g>
<!-- 65&#45;&gt;55 -->
<g id="edge78" class="edge">
<title>65&#45;&gt;55</title>
<path fill="none" stroke="#c0c0c0" stroke-width="2" d="M1621.4859,-431.8314C1620.8442,-424.131 1620.0812,-414.9743 1619.3681,-406.4166"/>
<polygon fill="#c0c0c0" stroke="#c0c0c0" stroke-width="2" points="1622.8529,-406.088 1618.5344,-396.4133 1615.8771,-406.6694 1622.8529,-406.088"/>
</g>
</g>
</svg>
